<?xml version="1.0" standalone="no"?>
<!DOCTYPE svg PUBLIC "-//W3C//DTD SVG 1.1//EN" "http://www.w3.org/Graphics/SVG/1.1/DTD/svg11.dtd" >
<svg xmlns="http://www.w3.org/2000/svg">
<metadata>
This is a custom SVG webfont generated by Font Squirrel.
</metadata>
<defs>
<font id="TheMixSemiBold" horiz-adv-x="1441" >
<font-face units-per-em="2048" ascent="1536" descent="-512" />
<missing-glyph horiz-adv-x="446" />
<glyph unicode=" "  horiz-adv-x="446" />
<glyph unicode="&#x09;" horiz-adv-x="446" />
<glyph unicode="&#xa0;" horiz-adv-x="446" />
<glyph unicode="!" horiz-adv-x="620" d="M168 116.5q0 57.5 41 96.5t100.5 39t99.5 -39t40 -96.5t-40 -97t-99.5 -39.5t-100.5 39.5t-41 97zM180 1456h258l-35 -1094h-186z" />
<glyph unicode="&#x22;" horiz-adv-x="784" d="M98 1524h226l-31 -494h-162zM461 1524h225l-31 -494h-163z" />
<glyph unicode="#" horiz-adv-x="1406" d="M57 377v160h301l37 346h-278v159h295l37 340h186l-35 -340h277l36 340h189l-35 -340h281v-159h-299l-37 -346h278v-160h-295l-39 -377h-188l39 377h-277l-41 -377h-188l41 377h-285zM547 537h276l37 346h-276z" />
<glyph unicode="$" horiz-adv-x="1005" d="M109 918q0 133 89 229t236 123v211h160v-201q115 -4 213 -25l-16 -190q-121 35 -230 35q-119 0 -174 -45t-55 -115q0 -66 58.5 -111t143 -76.5t168.5 -71.5t142.5 -118t58.5 -192q0 -141 -91 -244.5t-251 -136.5v-258h-160v248q-127 2 -249 28l12 201q117 -43 264 -43 q246 0 246 180q0 70 -58.5 116t-141.5 76.5t-166 68.5t-141 116t-58 195z" />
<glyph unicode="%" horiz-adv-x="1648" d="M82 1061q0 164 99.5 261t238.5 97q145 0 235 -81t90 -248q0 -164 -101 -263.5t-244.5 -99.5t-230.5 85t-87 249zM242 63l985 1371l155 -115l-983 -1370zM270 1075q0 -193 140 -192q66 0 106.5 51t40.5 143q0 100 -35 143.5t-108 43.5q-61 0 -102.5 -51.5t-41.5 -137.5z M887 297q0 164 99 261t239 97q145 0 235 -80.5t90 -248.5q0 -164 -101 -263.5t-244.5 -99.5t-230.5 85t-87 249zM1075 311q0 -193 139 -192q66 0 107 51t41 143q0 98 -36 142.5t-107 44.5q-61 0 -102.5 -51.5t-41.5 -137.5z" />
<glyph unicode="&#x26;" horiz-adv-x="1638" d="M106 381q0 131 69 232.5t202 207.5q-106 121 -148.5 205t-42.5 166q0 137 102.5 231.5t280.5 94.5q164 0 254 -80t90 -211q0 -205 -245 -402q229 -229 440 -393v-2q106 147 113 338q-72 12 -162 20v127q217 23 383 15q20 -352 -178 -613q133 -104 264 -194l-144 -168 q-139 98 -280 209q-213 -186 -537 -187q-221 0 -341 114t-120 290zM332 410q0 -102 75.5 -174t196.5 -72q176 0 340 121q-268 223 -438 405q-174 -145 -174 -280zM403 1202q0 -92 136 -252q160 131 159 258q0 61 -36.5 101.5t-108.5 40.5q-66 0 -108 -41t-42 -107z" />
<glyph unicode="'" horiz-adv-x="423" d="M98 1524h226l-31 -494h-162z" />
<glyph unicode="(" horiz-adv-x="622" d="M127 582q0 532 281 987h202q-268 -444 -268 -977q0 -549 274 -987h-210q-279 449 -279 977z" />
<glyph unicode=")" horiz-adv-x="622" d="M18 -395q272 446 273 985q0 532 -273 979h209q276 -453 277 -983q0 -532 -279 -981h-207z" />
<glyph unicode="*" horiz-adv-x="774" d="M72 1092l209 88l-209 88l80 137l180 -135l-29 225h160l-27 -225l180 135l78 -135l-209 -88l209 -88l-80 -140l-180 138l29 -226h-160l27 226l-180 -138z" />
<glyph unicode="+" horiz-adv-x="1155" d="M53 436v182h420v435h207v-435h422v-182h-422v-436h-207v436h-420z" />
<glyph unicode="," horiz-adv-x="495" d="M53 -252q178 193 88 303q-53 61 -19 137t122 76t129 -82t-12.5 -227t-215.5 -289z" />
<glyph unicode="-" horiz-adv-x="679" d="M94 428v176h492v-176h-492z" />
<glyph unicode="." horiz-adv-x="495" d="M102 125q0 59 43 101t102.5 42t102.5 -42t43 -101t-43 -102t-102.5 -43t-102.5 43t-43 102z" />
<glyph unicode="/" horiz-adv-x="862" d="M68 0l528 1382h213l-526 -1382h-215z" />
<glyph unicode="0" horiz-adv-x="1251" d="M96 516q0 250 160 403.5t383 153.5q260 0 388 -149.5t128 -382.5q0 -254 -159.5 -407.5t-391.5 -153.5q-227 0 -367.5 132t-140.5 404zM315 532q0 -164 77 -264t231 -100q131 0 222 99.5t91 262.5q0 160 -79 258.5t-226 98.5q-135 0 -225.5 -96.5t-90.5 -258.5z" />
<glyph unicode="1" horiz-adv-x="696" d="M41 936l309 117h174v-1053h-225v844l-221 -94z" />
<glyph unicode="2" horiz-adv-x="987" d="M102 0v176l240 199q152 125 208 190.5t56 141.5q0 80 -52 129t-148 49q-129 0 -252 -76l-31 188q158 74 332 74q188 0 290.5 -88t102.5 -235q0 -109 -63.5 -204t-196.5 -204l-189 -150l-2 -4q104 8 494 9v-195h-789z" />
<glyph unicode="3" horiz-adv-x="942" d="M82 -373l22 193q88 -27 183 -27q152 0 234.5 69.5t82.5 184.5q0 137 -121 195.5t-329 36.5v176q205 -2 315.5 60.5t110.5 184.5q0 86 -58.5 135.5t-159.5 49.5q-125 0 -235 -62l-21 185q141 59 300 59q199 0 301 -92t102 -236q0 -113 -64.5 -199.5t-173.5 -131.5v-2 q125 -23 198 -114t73 -218q0 -203 -152.5 -336t-417.5 -133q-100 -1 -190 22z" />
<glyph unicode="4" horiz-adv-x="1124" d="M33 178l549 879h278v-860h234v-197h-234v-385h-215v385h-577zM244 195q104 2 405 2v645h-2z" />
<glyph unicode="5" horiz-adv-x="954" d="M104 -385l23 199q72 -14 147 -15q170 0 260.5 75t90.5 196q0 119 -94.5 192.5t-268.5 73.5q-37 0 -115 -4v721h670v-215l-463 2v-322q238 0 371 -115.5t133 -302.5q0 -215 -169 -355t-429 -140q-70 0 -156 10z" />
<glyph unicode="6" horiz-adv-x="1191" d="M123 567q0 418 201.5 646.5t537.5 228.5q47 0 105 -4v-195q-66 10 -123 10q-195 0 -313.5 -110.5t-161.5 -306.5q-2 -8 -7.5 -33t-9.5 -41l2 -2q100 147 322 147q197 0 311.5 -118.5t114.5 -317.5q0 -215 -141.5 -353t-368.5 -138q-219 0 -344 154t-125 433zM369 461 q0 -125 64.5 -210t184.5 -85q115 0 182.5 78t67.5 200q0 127 -64.5 200t-178.5 73q-121 0 -188.5 -75t-67.5 -181z" />
<glyph unicode="7" horiz-adv-x="940" d="M47 838v215h838v-185q-260 -590 -404 -1253h-245q162 670 403 1229q-103 -6 -592 -6z" />
<glyph unicode="8" horiz-adv-x="1132" d="M104 340q0 127 73 213t196 168h-2q-248 147 -248 354q0 168 126 272.5t326 104.5q197 0 311.5 -93t114.5 -245q0 -109 -61 -192.5t-192 -169.5q129 -76 204.5 -163t75.5 -216q0 -184 -138 -288.5t-345 -104.5q-209 0 -325 99t-116 261zM336 365q0 -92 62.5 -147.5 t168.5 -55.5q98 0 164 51t66 139q0 86 -62.5 148.5t-187.5 128.5h-2q-209 -127 -209 -264zM352 1087q0 -72 54.5 -128t166.5 -117l2 -2q106 70 152.5 126t46.5 126q0 78 -55 129t-153.5 51t-156 -52.5t-57.5 -132.5z" />
<glyph unicode="9" horiz-adv-x="1191" d="M90 571q0 217 139.5 357.5t360.5 140.5q219 0 349 -148.5t130 -447.5q0 -416 -197.5 -642t-558.5 -226q-76 0 -129 10v203q68 -20 140 -21q385 0 481 387q2 10 8 44t8 48l-2 3q-102 -139 -311 -140q-195 0 -306.5 116.5t-111.5 315.5zM322 606q0 -131 63.5 -202.5 t181.5 -71.5q113 0 182.5 72.5t69.5 177.5q0 135 -64.5 218t-183.5 83q-113 0 -181 -79t-68 -198z" />
<glyph unicode=":" horiz-adv-x="542" d="M127 125q0 59 43 101t100 42q59 0 102.5 -42t43.5 -101t-43 -102t-102.5 -43t-101.5 43t-42 102zM127 714.5q0 59.5 42 102.5t101.5 43t102.5 -43t43 -102.5t-43 -102.5t-102.5 -43t-101.5 43t-42 102.5z" />
<glyph unicode=";" horiz-adv-x="542" d="M80 -252q178 193 86 303q-51 61 -17.5 137t121.5 76t129 -82t-12 -227t-215 -289zM127 714.5q0 59.5 42 102.5t101.5 43t102.5 -43t43 -102.5t-43 -102.5t-102.5 -43t-101.5 43t-42 102.5z" />
<glyph unicode="&#x3c;" horiz-adv-x="1028" d="M106 510l650 600l141 -143l-510 -455l512 -442l-143 -150z" />
<glyph unicode="=" horiz-adv-x="1185" d="M139 246v178h910v-178h-910zM139 614v179h910v-179h-910z" />
<glyph unicode="&#x3e;" horiz-adv-x="1028" d="M129 963l143 149l650 -590l-650 -600l-141 144l510 454z" />
<glyph unicode="?" horiz-adv-x="872" d="M131 1268l27 198q285 -12 444.5 -129.5t159.5 -279.5q0 -74 -30 -138.5t-73 -106.5t-90 -91t-79.5 -93t-44 -114t17.5 -152h-213q-39 125 -26.5 202t61.5 144.5t101 111.5t94 100.5t42 111.5q0 98 -107.5 162t-283.5 74zM223 116.5q0 57.5 41 96.5t100.5 39t99.5 -39 t40 -96.5t-40 -97t-99.5 -39.5t-100.5 39.5t-41 97z" />
<glyph unicode="@" horiz-adv-x="1685" d="M121 625q0 340 229.5 563t556.5 223q303 0 477.5 -170t174.5 -422q0 -233 -114 -354t-304 -121q-102 0 -150.5 53.5t-40.5 128.5h-6q-33 -74 -103.5 -128t-158.5 -54q-186 0 -186 246q0 205 109.5 339t312.5 134q104 0 227 -29l-64 -348q-18 -102 4.5 -144t85.5 -42 q199 0 199 309q0 186 -117.5 312t-355.5 126q-248 0 -417 -171t-169 -435q0 -236 136.5 -375t390.5 -139q164 0 309 49v-166q-137 -49 -336 -49q-324 0 -507 181.5t-183 482.5zM666 623q0 -123 65 -123q68 0 126 91t89 249l15 78q-41 10 -91 10q-96 0 -150 -97t-54 -208z " />
<glyph unicode="A" horiz-adv-x="1269" d="M12 0l496 1382h248l501 -1382h-247l-107 305h-559l-106 -305h-226zM401 483h443l-158 435q-37 98 -61 212h-4q-20 -100 -64 -219z" />
<glyph unicode="B" horiz-adv-x="1175" d="M160 0v1382q326 6 434 7q223 0 340 -87.5t117 -248.5q0 -106 -64.5 -192.5t-171.5 -123.5v-4q129 -25 196.5 -113t67.5 -202q0 -74 -26.5 -143.5t-85 -135t-169 -105.5t-261.5 -40q-47 0 -180.5 3t-196.5 3zM383 186q57 -10 162 -10q147 0 223 64.5t76 173.5 q0 215 -336 215q-94 0 -125 -2v-441zM383 797q37 -2 119 -2q154 0 234.5 58t80.5 165q0 193 -260 192q-68 0 -174 -4v-409z" />
<glyph unicode="C" horiz-adv-x="1177" d="M88 651q0 338 173 541t509 203q139 0 305 -39l-24 -205q-154 47 -299 47q-207 0 -313.5 -140t-106.5 -370q0 -504 438 -504q160 0 291 64l26 -199q-168 -66 -366 -65q-168 0 -293 51t-197.5 144t-107.5 211t-35 261z" />
<glyph unicode="D" horiz-adv-x="1378" d="M160 0v1380q33 0 115.5 3t161.5 4.5t151 1.5q705 0 704 -678q0 -346 -209 -532.5t-557 -186.5q-84 0 -216 4t-150 4zM383 193q76 -10 166 -11q233 0 369.5 128t136.5 384q0 510 -484 510q-115 0 -188 -6v-1005z" />
<glyph unicode="E" horiz-adv-x="1019" d="M160 0v1382h729v-186h-506v-393h481v-182h-481v-431h506v-190h-729z" />
<glyph unicode="F" horiz-adv-x="956" d="M160 0v1382h721v-188h-498v-406h471v-182h-471v-606h-223z" />
<glyph unicode="G" horiz-adv-x="1390" d="M82 662q0 328 206 533.5t554 205.5q201 0 385 -60l-35 -206q-182 72 -369 71q-219 0 -360 -137t-141 -385q0 -238 128 -372t351 -134q111 0 213 33v502h223v-650q-217 -84 -463 -83q-322 0 -507 181.5t-185 500.5z" />
<glyph unicode="H" horiz-adv-x="1419" d="M160 0v1382h223v-571h653v571h221v-1382h-221v621h-653v-621h-223z" />
<glyph unicode="I" horiz-adv-x="544" d="M160 0v1382h223v-1382h-223z" />
<glyph unicode="J" horiz-adv-x="679" d="M2 0v195q63 -23 133 -23q84 0 123 45t39 166v999h223v-1009q0 -389 -358 -389q-74 0 -160 16z" />
<glyph unicode="K" horiz-adv-x="1208" d="M160 0v1382h223v-641l504 641h274l-549 -667l570 -715h-297l-502 676v-676h-223z" />
<glyph unicode="L" horiz-adv-x="874" d="M160 0v1382h223v-1187h475v-195h-698z" />
<glyph unicode="M" horiz-adv-x="1814" d="M84 0l207 1382h266l266 -798q55 -168 76 -283h4q20 100 76 274l272 807h269l211 -1382h-236l-109 735q-18 117 -43 338h-4q-33 -156 -71 -270l-260 -803h-232l-248 745q-68 197 -88 328h-4q-4 -57 -37 -358l-88 -715h-227z" />
<glyph unicode="N" d="M160 0v1382h293l456 -753q53 -90 168 -314q-14 276 -14 658v409h217v-1382h-289l-473 786q-76 123 -153 291q12 -203 12 -612v-465h-217z" />
<glyph unicode="O" d="M78 676q0 334 190.5 530.5t472.5 196.5q287 0 455 -178t168 -516q0 -334 -189.5 -531.5t-474.5 -197.5q-307 0 -464.5 185t-157.5 511zM315 702q0 -244 101.5 -384t300.5 -140q168 0 288.5 132t120.5 376q0 250 -105.5 385t-299.5 135q-170 0 -288 -133t-118 -371z" />
<glyph unicode="P" horiz-adv-x="1079" d="M160 0v1382q213 8 354 9q244 0 376 -111t132 -305q0 -203 -148.5 -336t-388.5 -133q-68 0 -102 4v-510h-223zM383 698q61 -8 98 -8q141 2 225.5 74t84.5 192q0 252 -293 252q-78 0 -115 -4v-506z" />
<glyph unicode="Q" horiz-adv-x="1439" d="M78 676q0 334 190.5 530.5t472.5 196.5q287 0 455 -178t168 -516q0 -334 -189.5 -531.5t-474.5 -197.5q-307 0 -464.5 185t-157.5 511zM315 702q0 -244 101.5 -384t300.5 -140q168 0 288.5 132t120.5 376q0 250 -105.5 385t-299.5 135q-170 0 -288 -133t-118 -371z M639 -137q48 6 102 6q135 0 300 -38q161 -36 291 -36q56 0 106 6v-196q-79 -12 -154 -12q-42 0 -83 4q-114 10 -187.5 32.5t-174.5 34.5q-51 6 -101 6t-99 -6v199z" />
<glyph unicode="R" horiz-adv-x="1144" d="M160 0v1382q133 8 370 9q483 0 484 -375q0 -162 -108.5 -265.5t-282.5 -121.5q12 -16 36.5 -47t44 -55.5t35.5 -45.5l365 -481h-281l-430 598h-10v-598h-223zM383 766q41 -4 109 -4q133 0 210.5 62.5t77.5 166.5q0 217 -280 217q-51 0 -117 -4v-438z" />
<glyph unicode="S" horiz-adv-x="1030" d="M94 999q0 182 135.5 293t372.5 111q106 0 250 -25l-12 -198q-127 39 -250 39q-125 0 -192.5 -53.5t-67.5 -141.5q0 -76 62.5 -126t150.5 -84t177 -74t151.5 -121.5t62.5 -200.5q0 -195 -143.5 -316.5t-387.5 -121.5q-152 0 -278 32l12 211q139 -51 287 -51 q121 0 197.5 53.5t76.5 159.5q0 80 -62.5 131t-150.5 84t-177 73t-151.5 121.5t-62.5 204.5z" />
<glyph unicode="T" horiz-adv-x="1052" d="M35 1194v188h983v-188h-381v-1194h-223v1194h-379z" />
<glyph unicode="U" horiz-adv-x="1406" d="M160 471v911h223v-895q0 -154 69.5 -238.5t247.5 -84.5q172 0 250 81t78 271v866h219v-850q0 -274 -143 -413t-418 -139q-156 0 -264.5 39.5t-162.5 112.5t-76.5 154t-22.5 185z" />
<glyph unicode="V" horiz-adv-x="1273" d="M14 1382h246l291 -852q55 -154 88 -280h2q41 158 90 295l297 837h229l-497 -1382h-254z" />
<glyph unicode="W" horiz-adv-x="1949" d="M61 1382h238l213 -839q35 -127 53 -273h2q25 160 56 262l235 850h244l241 -852q33 -121 56 -254h2q27 156 49 242l215 864h223l-358 -1382h-275l-235 854q-25 84 -53 260h-2q-14 -125 -50 -256l-233 -858h-262z" />
<glyph unicode="X" horiz-adv-x="1253" d="M29 0l448 711l-422 671h258l308 -505l303 505h252l-414 -667l463 -715h-281l-328 543l-325 -543h-262z" />
<glyph unicode="Y" horiz-adv-x="1122" d="M12 1382h244l205 -436q55 -123 98 -233h4q37 100 115 258l194 411h236l-440 -888v-494h-224v494z" />
<glyph unicode="Z" horiz-adv-x="1101" d="M92 0v170l545 866q45 72 102 150q-59 -2 -280 -2h-346v198h891v-176l-574 -895q-23 -37 -72 -110q37 4 324 4h330v-205h-920z" />
<glyph unicode="[" horiz-adv-x="663" d="M162 -412v1997h426v-172h-221v-1651h221v-174h-426z" />
<glyph unicode="\" horiz-adv-x="841" d="M51 1382h203l539 -1382h-209z" />
<glyph unicode="]" horiz-adv-x="663" d="M76 -238h221v1651h-221v172h426v-1997h-426v174z" />
<glyph unicode="^" horiz-adv-x="1095" d="M115 774l338 608h172l352 -604l-160 -82l-282 527l-271 -527z" />
<glyph unicode="_" horiz-adv-x="1024" d="M0 -342h1024v-174h-1024v174z" />
<glyph unicode="`" horiz-adv-x="759" d="M184 1364l101 154l321 -228l-84 -125z" />
<glyph unicode="a" horiz-adv-x="1116" d="M88 240q0 174 162 271t438 97v66q0 98 -48 145t-165 47q-170 0 -303 -82l-20 187q174 68 358 67q221 0 309 -87t88 -257v-524q84 -14 178 -20v-136q-158 -17 -290 -16q-48 0 -93 2q0 119 11 188l-2 2q-39 -94 -129 -152t-209 -58q-131 0 -208 69.5t-77 190.5zM299 276 q0 -57 38 -90.5t101 -33.5q109 0 179.5 87t70.5 201v21q-389 -1 -389 -185z" />
<glyph unicode="b" horiz-adv-x="1157" d="M-6 1346v135q156 17 297 16q51 0 100 -2v-469q0 -109 -16 -195h2q41 96 127 151.5t196 55.5q180 0 277.5 -123.5t97.5 -355.5q0 -266 -143.5 -420.5t-396.5 -154.5q-195 0 -363 43v1298q-84 15 -178 21zM391 178q63 -20 162 -20q293 0 293 381q0 317 -203 317 q-115 0 -183.5 -110.5t-68.5 -251.5v-316z" />
<glyph unicode="c" horiz-adv-x="882" d="M78 475q0 254 131 406.5t385 152.5q117 0 221 -30l-22 -191q-106 39 -205 39q-137 0 -209 -94t-72 -258q0 -328 271 -328q127 0 221 49l18 -186q-129 -51 -287 -51q-452 -1 -452 491z" />
<glyph unicode="d" horiz-adv-x="1187" d="M78 459q0 264 143.5 419.5t388.5 155.5q43 0 154 -8v299q-84 14 -178 21v135q156 17 296 16q51 0 99 -2v-1325q84 -14 178 -20v-136q-156 -17 -290 -16q-49 0 -95 2q0 111 14 190h-4q-43 -96 -130 -153t-201 -57q-184 0 -279.5 127t-95.5 352zM309 479q0 -319 203 -319 q115 0 183.5 112.5t68.5 253.5v316q-84 18 -162 18q-293 0 -293 -381z" />
<glyph unicode="e" horiz-adv-x="1046" d="M78 502q0 238 124 387t341 149q207 0 311 -122.5t104 -317.5q0 -45 -6 -102h-649v-18q0 -325 301 -324q162 0 297 65l21 -174q-156 -66 -353 -65q-491 0 -491 522zM307 649h432q2 104 -53 166t-151 62q-92 0 -153 -62t-75 -166z" />
<glyph unicode="f" horiz-adv-x="720" d="M16 848v170h195v78q0 414 397 413q86 0 166 -18l-16 -180q-63 20 -140 20q-98 0 -144 -56t-46 -175v-82h264v-170h-264v-848h-217v848h-195z" />
<glyph unicode="g" horiz-adv-x="1138" d="M78 459q0 266 144.5 420.5t402.5 154.5q190 0 356 -28v-1063q0 -70 -13.5 -130.5t-50 -123t-96 -106.5t-158 -71.5t-227.5 -27.5q-168 0 -301 39l17 209q150 -59 301 -60q158 0 235.5 65.5t77.5 219.5v68q0 100 12 163l-4 2q-41 -96 -126 -152t-191 -56 q-182 0 -280.5 122t-98.5 355zM309 479q0 -317 201 -317q117 0 185.5 111.5t68.5 256.5v312q-80 18 -162 18q-293 0 -293 -381z" />
<glyph unicode="h" horiz-adv-x="1187" d="M-6 1346v135q156 17 297 16q51 0 100 -2v-461q0 -133 -18 -205l4 -2q45 98 135 154.5t211 56.5q305 0 305 -325v-713h-219v655q0 100 -34 150.5t-118 50.5q-115 0 -190.5 -105.5t-75.5 -261.5v-489h-219v1325q-84 15 -178 21z" />
<glyph unicode="i" horiz-adv-x="595" d="M41 868v136q156 17 296 16q51 0 99 -2v-1018h-217v848q-84 14 -178 20zM188 1306.5q0 57.5 41 97.5t99 40q59 0 100 -40t41 -97.5t-41 -97.5t-100 -40q-57 0 -98.5 40t-41.5 97.5z" />
<glyph unicode="j" horiz-adv-x="602" d="M-72 -496l17 189q57 -23 125 -23q88 0 120.5 45t32.5 168v965q-84 14 -178 20v136q156 17 297 16q51 0 100 -2v-1114q0 -213 -85 -315.5t-287 -102.5q-81 0 -142 18zM193 1306.5q0 57.5 40.5 97.5t98.5 40q59 0 100 -40t41 -97.5t-41 -97.5t-100 -40q-57 0 -98 40 t-41 97.5z" />
<glyph unicode="k" horiz-adv-x="1050" d="M-6 1346v135q156 17 297 16q51 0 100 -2v-913l330 436h268l-377 -465l406 -553h-279l-348 516v-516h-219v1325q-84 15 -178 21z" />
<glyph unicode="l" horiz-adv-x="550" d="M-6 1346v135q156 17 297 16q51 0 100 -2v-1495h-219v1325q-84 15 -178 21z" />
<glyph unicode="m" horiz-adv-x="1847" d="M41 868v136q158 17 292 16q49 0 95 -2q0 -115 -14 -199l2 -2q47 102 138 161.5t208 59.5q133 0 198.5 -66.5t81.5 -152.5q41 88 128 153.5t214 65.5q303 0 304 -336v-702h-220v649q0 102 -31.5 154.5t-113.5 52.5q-102 0 -182 -103.5t-80 -265.5v-487h-217v651 q0 98 -31 151.5t-115 53.5q-106 0 -184 -105.5t-78 -263.5v-487h-217v848q-84 14 -178 20z" />
<glyph unicode="n" horiz-adv-x="1232" d="M41 868v136q156 17 291 16q49 0 96 -2q0 -106 -16 -199l4 -2q47 102 138 161.5t214 59.5q305 0 305 -325v-713h-217v655q0 100 -34 150.5t-120 50.5q-113 0 -189.5 -105.5t-76.5 -258.5v-492h-217v848q-84 14 -178 20z" />
<glyph unicode="o" horiz-adv-x="1124" d="M74 496q0 236 140 389t368 153q215 0 340 -126t125 -384q0 -238 -141.5 -393t-364.5 -155q-219 0 -343 128t-124 388zM301 518q0 -350 260 -350q113 0 186.5 89t73.5 257q0 340 -258 340q-109 0 -185.5 -86t-76.5 -250z" />
<glyph unicode="p" horiz-adv-x="1202" d="M41 868v136q156 17 289 16q48 0 94 -2q0 -125 -12 -191h4q43 98 129 154.5t203 56.5q180 0 277 -125t97 -354q0 -270 -139 -421.5t-391 -151.5q-92 0 -156 12v-498h-217v1348q-84 14 -178 20zM436 178q70 -20 162 -20q293 0 293 381q0 319 -203 319q-115 0 -183.5 -112.5 t-68.5 -253.5v-314z" />
<glyph unicode="q" horiz-adv-x="1142" d="M82 457q0 266 143.5 421.5t401.5 155.5q190 0 356 -28v-1336q84 -14 178 -20v-135q-163 -18 -313 -18q-41 0 -82 1v500q0 115 14 188l-4 2q-41 -96 -126 -152t-191 -56q-182 0 -279.5 120.5t-97.5 356.5zM311 479q0 -319 201 -319q117 0 185.5 112.5t68.5 257.5v314 q-80 18 -162 18q-293 0 -293 -383z" />
<glyph unicode="r" horiz-adv-x="786" d="M41 868v136q156 17 291 16q49 0 96 -2q0 -96 -20 -225h4q39 117 122 187q71 60 177 60q19 0 39 -2l-11 -215q-31 5 -59 6q-108 0 -168 -83q-76 -103 -76 -332v-414h-217v848q-84 14 -178 20z" />
<glyph unicode="s" horiz-adv-x="862" d="M94 723q0 137 109.5 226t310.5 89q80 0 191 -18l-7 -178q-96 29 -198 28q-180 0 -181 -127q0 -53 46.5 -86.5t113 -55t133 -49.5t112.5 -88.5t46 -154.5q0 -145 -121 -237t-321 -92q-109 0 -215 20l6 186q113 -33 221 -32q90 0 145.5 36.5t55.5 98.5q0 55 -46 88 t-112 52.5t-131.5 46t-111.5 88t-46 159.5z" />
<glyph unicode="t" horiz-adv-x="763" d="M8 848v170h195v323l217 60v-383h268v-170h-266v-488q0 -113 27.5 -152.5t105.5 -39.5q72 0 133 16v-180q-109 -23 -203 -22q-160 0 -221 69.5t-61 241.5v555h-195z" />
<glyph unicode="u" horiz-adv-x="1273" d="M35 868v136q164 17 301 16q50 0 96 -2v-656q0 -102 34 -151t118 -49q113 0 189.5 105.5t76.5 258.5v492h217v-848q84 -14 178 -20v-136q-156 -17 -290 -16q-49 0 -95 2q0 113 14 199l-4 2q-47 -102 -138 -161.5t-214 -59.5q-305 0 -305 325v543q-84 14 -178 20z" />
<glyph unicode="v" horiz-adv-x="1013" d="M12 1018h242l190 -539q37 -106 66 -209h2q29 113 59 201l195 547h235l-385 -1018h-223z" />
<glyph unicode="w" horiz-adv-x="1626" d="M27 1018h239l135 -473q63 -229 76 -285h2q27 127 72 279l151 479h222l153 -471q49 -158 80 -287h2q33 145 72 277l141 481h227l-325 -1018h-242l-176 532q-29 88 -59 216h-2q-27 -117 -70 -256l-154 -492h-231z" />
<glyph unicode="x" horiz-adv-x="1071" d="M33 0l364 512l-344 506h264l228 -363l231 363h244l-336 -502l352 -516h-278l-230 369l-231 -369h-264z" />
<glyph unicode="y" horiz-adv-x="1003" d="M-16 -500l16 193q61 -23 133 -23q78 0 127 47t96 174l41 109l-381 1018h246l166 -465q37 -100 80 -266h2q31 127 100 317l146 414h235l-422 -1116q-90 -240 -184 -328t-264 -88q-65 0 -137 14z" />
<glyph unicode="z" horiz-adv-x="919" d="M96 0v156l453 669q-102 -4 -246 -4h-197v197h703v-154l-447 -667q102 4 256 4h199v-201h-721z" />
<glyph unicode="{" horiz-adv-x="716" d="M57 561v168q117 6 164 52t47 169v213q0 207 80 314.5t264 107.5h39v-172q-104 0 -142 -50t-38 -196v-211q0 -274 -188 -309v-2q188 -29 188 -317v-320q0 -145 38 -195.5t142 -50.5v-174h-39q-184 0 -264 102.5t-80 321.5v322q0 123 -48 172t-163 55z" />
<glyph unicode="|" horiz-adv-x="569" d="M195 -512v2048h174v-2048h-174z" />
<glyph unicode="}" horiz-adv-x="712" d="M76 -238q104 0 142 50.5t38 195.5v320q0 289 188 317v2q-188 25 -188 303v217q0 145 -38 195.5t-142 50.5v172h39q184 0 264 -107.5t80 -314.5v-207q0 -129 46 -175t165 -52v-168q-113 -6 -162 -56t-49 -171v-322q0 -219 -80 -321.5t-264 -102.5h-39v174z" />
<glyph unicode="~" horiz-adv-x="1179" d="M92 602q127 115 285 115q102 0 228 -61.5t200 -61.5q100 0 211 96l71 -155q-125 -131 -290 -132q-102 0 -235.5 61.5t-203.5 61.5q-104 0 -198 -86z" />
<glyph unicode="&#xa1;" horiz-adv-x="620" d="M164 903.5q0 57.5 41 97t98 39.5q59 0 100 -39.5t41 -97t-41 -97.5t-100 -40q-57 0 -98 40t-41 97.5zM180 -438l27 1095h186l31 -1095h-244z" />
<glyph unicode="&#xa2;" horiz-adv-x="931" d="M84 555q0 197 103.5 333t283.5 167v188h168v-178q104 -4 199 -39l-19 -186q-98 47 -215 47q-135 0 -214 -84t-79 -236q0 -141 70 -225t219 -84q125 0 225 57l17 -192q-100 -41 -203 -49v-213h-168v215q-188 20 -287.5 145t-99.5 334z" />
<glyph unicode="&#xa3;" horiz-adv-x="1007" d="M115 0v166q117 80 171 155.5t54 184.5q0 23 -12 158h-209v167h190q-23 203 -22 236q0 199 94 290t285 91q88 0 170 -16l-13 -181q-78 18 -141 19q-176 0 -176 -195q0 -37 22 -244h277v-167h-260q8 -66 8 -129q0 -111 -41 -192t-129 -159q86 8 160 9h342v-193h-770z" />
<glyph unicode="&#xa4;" horiz-adv-x="1093" d="M78 72l145 180q-76 96 -76 260q0 152 86 254l-153 192l164 119l147 -203q74 31 160 31q88 0 147 -28l150 202l162 -123l-152 -190q63 -86 64 -240q0 -143 -80 -245l168 -207l-164 -123l-162 217q-76 -41 -168 -41q-70 0 -127 23l-143 -197zM342 518.5q0 -104.5 47 -167 t148 -62.5q80 0 135 62.5t55 172.5q0 219 -197 219q-80 0 -134 -60t-54 -164.5z" />
<glyph unicode="&#xa5;" horiz-adv-x="1220" d="M63 1382h244l203 -419q51 -113 100 -240h2q33 94 117 264l199 395h235l-391 -770h277v-143h-330v-131h330v-145h-330v-193h-221v193h-328v145h328v131h-328v143h276z" />
<glyph unicode="&#xa6;" horiz-adv-x="569" d="M195 262h174v-774h-174v774zM195 782v754h174v-754h-174z" />
<glyph unicode="&#xa7;" horiz-adv-x="1026" d="M135 711q0 180 137 286q-61 86 -61 195q0 141 101.5 237.5t299.5 96.5q84 0 146 -17l-15 -184q-61 20 -137 21q-164 0 -164 -146q0 -51 45 -114.5t111 -128t131.5 -136t110.5 -164t45 -186.5q0 -84 -38 -159.5t-99 -123.5q68 -90 67 -202q0 -135 -105.5 -234.5 t-316.5 -99.5q-82 0 -160 18l17 191q68 -23 151 -23q90 0 134.5 41t44.5 109q0 55 -46.5 117.5t-112 126t-130 133t-110.5 161t-46 185.5zM336 737q0 -82 64.5 -169t230.5 -259q55 45 55 135q0 51 -28.5 106.5t-61.5 94.5t-99.5 112.5t-105.5 119.5q-55 -46 -55 -140z" />
<glyph unicode="&#xa8;" horiz-adv-x="1118" d="M217 1335q0 51 36 87t87 36t88 -36t37 -87q0 -53 -36 -89t-89 -36q-51 0 -87 36t-36 89zM618 1335q0 51 37 87t88.5 36t87 -36t35.5 -87t-35.5 -88t-87 -37t-88.5 36t-37 89z" />
<glyph unicode="&#xa9;" horiz-adv-x="1552" d="M80 684q0 287 202.5 489.5t491.5 202.5t490.5 -201.5t201.5 -488.5t-202.5 -489.5t-489.5 -202.5q-293 0 -493.5 200.5t-200.5 489.5zM250 686q0 -219 153.5 -373.5t370.5 -154.5t370.5 153.5t153.5 372.5q0 217 -153.5 372.5t-370.5 155.5t-370.5 -153.5t-153.5 -372.5z M446 676q0 162 89.5 268.5t267.5 106.5q86 0 166 -29l-23 -152q-63 35 -139 35q-176 0 -176 -223q0 -207 168 -207q82 0 151 31l27 -146q-96 -39 -205 -38q-160 0 -243 96t-83 258z" />
<glyph unicode="&#xaa;" horiz-adv-x="845" d="M90 856q0 123 112.5 190.5t299.5 65.5v35q0 111 -127 110q-109 0 -225 -55l-17 154q123 45 268 45q147 0 214 -65.5t67 -168.5v-333q57 -8 127 -17v-119q-164 -18 -303 -12q0 49 10 105l-2 2q-23 -51 -82 -87t-125 -36q-106 0 -161.5 51t-55.5 135zM268 883 q0 -33 21.5 -52.5t60.5 -19.5q70 0 111 55.5t41 108.5v20q-234 1 -234 -112z" />
<glyph unicode="&#xab;" horiz-adv-x="1064" d="M100 506l230 385l168 -84l-187 -301l187 -293l-174 -88zM516 506l252 379l162 -86l-201 -293l201 -285l-168 -90z" />
<glyph unicode="&#xac;" horiz-adv-x="1110" d="M74 449v178h930v-494h-193v316h-737z" />
<glyph unicode="&#xad;" horiz-adv-x="679" d="M94 428v176h492v-176h-492z" />
<glyph unicode="&#xae;" horiz-adv-x="1153" d="M113 1087.5q0 192.5 135 325.5t327 133q197 0 331 -132t134 -327q0 -188 -137 -323t-328 -135q-195 0 -328.5 133t-133.5 325.5zM252 1089.5q0 -135.5 95 -232.5t228 -97q135 0 230.5 95t95.5 230.5t-95 233.5t-231 98q-133 0 -228 -96t-95 -231.5zM418 860v461h174 q162 0 162 -125q0 -106 -103 -131q20 -25 37 -59l80 -146h-133l-96 184h-11v-184h-110zM528 1118h25q80 0 80 66q0 53 -66 53h-39v-119z" />
<glyph unicode="&#xaf;" horiz-adv-x="751" d="M143 1247v162h449v-162h-449z" />
<glyph unicode="&#x2c9;" horiz-adv-x="751" d="M143 1247v162h449v-162h-449z" />
<glyph unicode="&#xb0;" horiz-adv-x="780" d="M98 1239q0 125 88 199.5t203 74.5q141 0 212 -75.5t71 -192.5q0 -125 -88 -199.5t-207 -74.5q-129 0 -204 71.5t-75 196.5zM266 1243q0 -61 32 -97t87 -36q53 0 87 38t34 95q0 53 -28.5 92t-90.5 39q-53 0 -87 -37t-34 -94z" />
<glyph unicode="&#xb1;" horiz-adv-x="1189" d="M96 553v180h396v395h206v-395h396v-180h-396v-399h-206v399h-396zM106 41h977v-184h-977v184z" />
<glyph unicode="&#xb2;" horiz-adv-x="698" d="M59 553v160l172 161q145 137 146 228q0 117 -121 117q-82 0 -162 -45l-24 172q113 51 239 51q143 0 215 -66.5t72 -177.5q0 -150 -164 -311l-117 -111q88 4 312 4v-182h-568z" />
<glyph unicode="&#xb3;" horiz-adv-x="651" d="M61 553l21 152q61 -20 139 -21q66 0 107 32t41 87q0 57 -63.5 88t-205.5 10v135q258 0 258 127q0 86 -106 86q-76 0 -160 -37l-20 146q106 39 231 39q129 0 196.5 -56.5t67.5 -152.5q0 -139 -137 -195q68 -10 110 -64.5t42 -121.5q0 -123 -93.5 -197.5t-257.5 -74.5 q-78 0 -170 18z" />
<glyph unicode="&#xb4;" horiz-adv-x="800" d="M195 1290l321 226l98 -150l-338 -201z" />
<glyph unicode="&#xb5;" horiz-adv-x="1259" d="M166 -500v1518h219v-633q0 -227 215 -227q125 0 199.5 104.5t74.5 263.5v492h218v-1018h-209q0 117 12 193l-4 2q-31 -86 -107.5 -148.5t-210.5 -62.5q-129 0 -190 69l-4 -2q6 -59 6 -213v-338h-219z" />
<glyph unicode="&#x3bc;" horiz-adv-x="1259" d="M166 -500v1518h219v-633q0 -227 215 -227q125 0 199.5 104.5t74.5 263.5v492h218v-1018h-209q0 117 12 193l-4 2q-31 -86 -107.5 -148.5t-210.5 -62.5q-129 0 -190 69l-4 -2q6 -59 6 -213v-338h-219z" />
<glyph unicode="&#xb6;" horiz-adv-x="1198" d="M125 940q0 197 130 319.5t339 122.5v-890q-231 -2 -350 124.5t-119 323.5zM604 -25h148v1407h329v-172h-139v-1407h-338v172z" />
<glyph unicode="&#xb7;" horiz-adv-x="512" d="M106 587.5q0 61.5 44.5 105.5t105.5 44t105.5 -44t44.5 -105.5t-44.5 -104.5t-105.5 -43t-105.5 43t-44.5 104.5z" />
<glyph unicode="&#x2219;" horiz-adv-x="512" d="M106 587.5q0 61.5 44.5 105.5t105.5 44t105.5 -44t44.5 -105.5t-44.5 -104.5t-105.5 -43t-105.5 43t-44.5 104.5z" />
<glyph unicode="&#xb8;" horiz-adv-x="819" d="M285 -416q186 133 86 312h204q121 -246 -190 -398z" />
<glyph unicode="&#xb9;" horiz-adv-x="565" d="M12 1296l238 86h180v-829h-213v637l-172 -72z" />
<glyph unicode="&#xba;" horiz-adv-x="864" d="M90 1028q0 170 98.5 272.5t251.5 102.5q145 0 236.5 -83t91.5 -269q0 -172 -99.5 -275.5t-256.5 -103.5q-150 0 -236 86t-86 270zM270 1040q0 -92 36 -152.5t118 -60.5q72 0 117 53.5t45 157.5q0 209 -156 209q-66 0 -113 -52.5t-47 -154.5z" />
<glyph unicode="&#xbb;" horiz-adv-x="1064" d="M135 219l201 291l-201 287l168 88l246 -375l-252 -379zM567 211l187 299l-187 295l174 86l226 -381l-232 -385z" />
<glyph unicode="&#xbc;" horiz-adv-x="1912" d="M51 1296l238 86h180v-829h-213v637l-170 -72zM291 -217l874 1730h221l-872 -1730h-223zM1085 295l314 534h289v-507h122v-164h-122v-158h-199v158h-399zM1270 317q61 2 217 2v363z" />
<glyph unicode="&#xbd;" horiz-adv-x="1867" d="M51 1296l238 86h180v-829h-213v637l-170 -72zM291 -217l874 1730h221l-872 -1730h-223zM1196 0v158l170 164q145 139 145 227q0 117 -120 117q-82 0 -162 -45l-25 172q113 51 244 51q141 0 213 -66.5t72 -177.5q0 -152 -168 -311l-117 -111q88 4 313 4v-182h-565z" />
<glyph unicode="&#xbe;" horiz-adv-x="1943" d="M61 553l21 152q61 -20 139 -21q66 0 107 32t41 87q0 57 -63.5 88t-205.5 10v135q258 0 258 127q0 86 -106 86q-76 0 -160 -37l-20 146q106 39 231 39q129 0 196.5 -56.5t67.5 -152.5q0 -139 -137 -195q68 -10 110 -64.5t42 -121.5q0 -123 -93.5 -197.5t-257.5 -74.5 q-78 0 -170 18zM340 -217l877 1730h221l-875 -1730h-223zM1174 295l311 534h291v-507h122v-164h-122v-158h-199v158h-399zM1358 317q59 2 217 2v363z" />
<glyph unicode="&#xbf;" horiz-adv-x="872" d="M111 -37q0 74 29.5 138.5t72.5 106.5t90 91t80 93t44 113.5t-17 151.5h213q39 -125 25.5 -201.5t-61.5 -144t-100.5 -111.5t-94.5 -100.5t-42 -113.5q0 -96 107.5 -161t283.5 -73l-28 -201q-283 14 -442.5 132t-159.5 280zM369 903.5q0 57.5 41 97t98 39.5 q59 0 100 -39.5t41 -97t-41 -97.5t-100 -40q-57 0 -98 40t-41 97.5z" />
<glyph unicode="&#xc0;" horiz-adv-x="1269" d="M12 0l496 1382h248l501 -1382h-247l-107 305h-559l-106 -305h-226zM336 1679l100 154l322 -227l-84 -125zM401 483h443l-158 435q-37 98 -61 212h-4q-20 -100 -64 -219z" />
<glyph unicode="&#xc1;" horiz-adv-x="1269" d="M12 0l496 1382h248l501 -1382h-247l-107 305h-559l-106 -305h-226zM401 483h443l-158 435q-37 98 -61 212h-4q-20 -100 -64 -219zM467 1606l321 225l99 -150l-338 -200z" />
<glyph unicode="&#xc2;" horiz-adv-x="1269" d="M12 0l496 1382h248l501 -1382h-247l-107 305h-559l-106 -305h-226zM342 1618l291 186l301 -182l-80 -129l-223 133l-217 -133zM401 483h443l-158 435q-37 98 -61 212h-4q-20 -100 -64 -219z" />
<glyph unicode="&#xc3;" horiz-adv-x="1269" d="M12 0l496 1382h248l501 -1382h-247l-107 305h-559l-106 -305h-226zM287 1694q94 86 202 86q74 0 162 -50.5t142 -50.5q74 0 143 66l45 -146q-33 -33 -90 -58t-111 -25q-80 0 -166 49t-143 49q-74 0 -137 -68zM401 483h443l-158 435q-37 98 -61 212h-4q-20 -100 -64 -219z " />
<glyph unicode="&#xc4;" horiz-adv-x="1269" d="M12 0l496 1382h248l501 -1382h-247l-107 305h-559l-106 -305h-226zM305 1626q0 51 36 87t87 36t88 -36t37 -87q0 -53 -37 -89t-88 -36t-87 36t-36 89zM401 483h443l-158 435q-37 98 -61 212h-4q-20 -100 -64 -219zM707 1626q0 51 36.5 87t88 36t87 -36t35.5 -87 t-35.5 -88t-87.5 -37q-53 0 -88.5 36t-35.5 89z" />
<glyph unicode="&#xc5;" horiz-adv-x="1269" d="M12 0l496 1382h248l501 -1382h-247l-107 305h-559l-106 -305h-226zM389 1579q0 100 71.5 168t174 68t173.5 -68t71 -168q0 -98 -72 -167t-172 -69q-104 0 -175 67t-71 169zM401 483h443l-158 435q-37 98 -61 212h-4q-20 -100 -64 -219zM524 1579q0 -47 32 -80t79 -33 q45 0 76.5 33t31.5 80t-31.5 80t-76.5 33q-47 0 -79 -33t-32 -80z" />
<glyph unicode="&#xc6;" horiz-adv-x="1603" d="M-84 0l713 1382h827v-186h-495v-393h477v-182h-477v-431h512v-190h-730v322h-434l-162 -322h-231zM387 498h356v696h-4q-82 -188 -133 -283z" />
<glyph unicode="&#xc7;" horiz-adv-x="1177" d="M88 651q0 338 173 541t509 203q139 0 305 -39l-24 -205q-154 47 -299 47q-207 0 -313.5 -140t-106.5 -370q0 -504 438 -504q160 0 291 64l26 -199q-168 -66 -366 -65q-168 0 -293 51t-197.5 144t-107.5 211t-35 261zM496 -416q186 133 86 312h204q121 -246 -190 -398z " />
<glyph unicode="&#xc8;" horiz-adv-x="1019" d="M160 0v1382h729v-186h-506v-393h481v-182h-481v-431h506v-190h-729zM252 1679l100 154l322 -227l-84 -125z" />
<glyph unicode="&#xc9;" horiz-adv-x="1019" d="M160 0v1382h729v-186h-506v-393h481v-182h-481v-431h506v-190h-729zM362 1606l322 225l98 -150l-338 -200z" />
<glyph unicode="&#xca;" horiz-adv-x="1019" d="M160 0v1382h729v-186h-506v-393h481v-182h-481v-431h506v-190h-729zM225 1618l291 186l301 -182l-80 -129l-223 133l-217 -133z" />
<glyph unicode="&#xcb;" horiz-adv-x="1019" d="M160 0v1382h729v-186h-506v-393h481v-182h-481v-431h506v-190h-729zM193 1626q0 51 35.5 87t87 36t88 -36t36.5 -87q0 -53 -35.5 -89t-89.5 -36q-51 0 -86.5 36t-35.5 89zM594 1626q0 51 37 87t88 36t87 -36t36 -87t-36 -88t-87 -37t-88 36t-37 89z" />
<glyph unicode="&#xcc;" horiz-adv-x="544" d="M23 1679l100 154l321 -225l-84 -127zM160 0v1382h223v-1382h-223z" />
<glyph unicode="&#xcd;" horiz-adv-x="544" d="M88 1606l322 225l100 -150l-340 -198zM160 0v1382h223v-1382h-223z" />
<glyph unicode="&#xce;" horiz-adv-x="544" d="M-18 1618l292 186l299 -182l-77 -129l-224 135l-217 -135zM160 0v1382h223v-1382h-223z" />
<glyph unicode="&#xcf;" horiz-adv-x="544" d="M-55 1626q0 51 35.5 88t87 37t88.5 -36t37 -89q0 -51 -37 -87t-88.5 -36t-87 36t-35.5 87zM160 0v1382h223v-1382h-223zM346 1626q0 53 36 89t89 36q51 0 87 -36t36 -89q0 -51 -36 -87t-87 -36t-88 36t-37 87z" />
<glyph unicode="&#xd0;" horiz-adv-x="1396" d="M4 623v168h176v589q33 0 116 3t161 4.5t149 1.5q702 0 703 -680q0 -346 -208 -531.5t-558 -185.5q-82 0 -212 4t-151 4v623h-176zM401 190q66 -8 166 -8q233 0 369.5 128t136.5 382q0 512 -483 512q-115 0 -189 -6v-407h269v-168h-269v-433z" />
<glyph unicode="&#xd1;" d="M160 0v1382h293l456 -753q53 -90 168 -314q-14 276 -14 658v409h217v-1382h-289l-473 786q-76 123 -153 291q12 -203 12 -612v-465h-217zM362 1694q92 86 203 86q74 0 162 -50.5t141 -50.5q74 0 144 66l45 -146q-33 -33 -90.5 -58t-110.5 -25q-80 0 -166 49t-143 49 q-74 0 -137 -68z" />
<glyph unicode="&#xd2;" d="M78 676q0 334 190.5 530.5t472.5 196.5q287 0 455 -178t168 -516q0 -334 -189.5 -531.5t-474.5 -197.5q-307 0 -464.5 185t-157.5 511zM315 702q0 -244 101.5 -384t300.5 -140q168 0 288.5 132t120.5 376q0 250 -105.5 385t-299.5 135q-170 0 -288 -133t-118 -371z M461 1679l100 154l322 -227l-84 -125z" />
<glyph unicode="&#xd3;" d="M78 676q0 334 190.5 530.5t472.5 196.5q287 0 455 -178t168 -516q0 -334 -189.5 -531.5t-474.5 -197.5q-307 0 -464.5 185t-157.5 511zM315 702q0 -244 101.5 -384t300.5 -140q168 0 288.5 132t120.5 376q0 250 -105.5 385t-299.5 135q-170 0 -288 -133t-118 -371z M596 1606l322 225l98 -150l-338 -200z" />
<glyph unicode="&#xd4;" d="M78 676q0 334 190.5 530.5t472.5 196.5q287 0 455 -178t168 -516q0 -334 -189.5 -531.5t-474.5 -197.5q-307 0 -464.5 185t-157.5 511zM315 702q0 -244 101.5 -384t300.5 -140q168 0 288.5 132t120.5 376q0 250 -105.5 385t-299.5 135q-170 0 -288 -133t-118 -371z M440 1618l291 186l301 -182l-80 -129l-223 133l-217 -133z" />
<glyph unicode="&#xd5;" d="M78 676q0 334 190.5 530.5t472.5 196.5q287 0 455 -178t168 -516q0 -334 -189.5 -531.5t-474.5 -197.5q-307 0 -464.5 185t-157.5 511zM315 702q0 -244 101.5 -384t300.5 -140q168 0 288.5 132t120.5 376q0 250 -105.5 385t-299.5 135q-170 0 -288 -133t-118 -371z M379 1698q92 86 203 86q74 0 161.5 -50.5t141.5 -50.5q74 0 143 66l45 -145q-33 -33 -90 -58.5t-111 -25.5q-80 0 -165.5 49t-143.5 49q-74 0 -137 -68z" />
<glyph unicode="&#xd6;" d="M78 676q0 334 190.5 530.5t472.5 196.5q287 0 455 -178t168 -516q0 -334 -189.5 -531.5t-474.5 -197.5q-307 0 -464.5 185t-157.5 511zM315 702q0 -244 101.5 -384t300.5 -140q168 0 288.5 132t120.5 376q0 250 -105.5 385t-299.5 135q-170 0 -288 -133t-118 -371z M403 1626q0 51 36 87t87.5 36t88 -36t36.5 -87q0 -53 -36.5 -89t-88 -36t-87.5 36t-36 89zM805 1626q0 51 37 87t88 36t87 -36t36 -87t-36 -88t-87 -37q-53 0 -89 36t-36 89z" />
<glyph unicode="&#xd7;" horiz-adv-x="1165" d="M125 174l330 330l-330 332l133 135l330 -332l332 330l118 -121l-329 -330l331 -332l-133 -135l-332 334l-329 -330z" />
<glyph unicode="&#xd8;" d="M76 678q0 336 186.5 530.5t470.5 194.5q72 0 133 -12l70 196l164 -53l-68 -191q156 -72 241 -234.5t85 -410.5q0 -332 -187.5 -525t-476.5 -193q-84 0 -143 14l-76 -207l-164 53l74 205q-309 156 -309 633zM303 696q0 -317 158 -432l338 930q-63 10 -129 4 q-158 -14 -262.5 -145.5t-104.5 -356.5zM616 186q59 -16 119 -12q172 8 283.5 139t111.5 369q0 330 -174 446z" />
<glyph unicode="&#xd9;" horiz-adv-x="1406" d="M160 471v911h223v-895q0 -154 69.5 -238.5t247.5 -84.5q172 0 250 81t78 271v866h219v-850q0 -274 -143 -413t-418 -139q-156 0 -264.5 39.5t-162.5 112.5t-76.5 154t-22.5 185zM428 1679l100 154l322 -227l-84 -125z" />
<glyph unicode="&#xda;" horiz-adv-x="1406" d="M160 471v911h223v-895q0 -154 69.5 -238.5t247.5 -84.5q172 0 250 81t78 271v866h219v-850q0 -274 -143 -413t-418 -139q-156 0 -264.5 39.5t-162.5 112.5t-76.5 154t-22.5 185zM551 1606l321 225l99 -150l-338 -200z" />
<glyph unicode="&#xdb;" horiz-adv-x="1406" d="M160 471v911h223v-895q0 -154 69.5 -238.5t247.5 -84.5q172 0 250 81t78 271v866h219v-850q0 -274 -143 -413t-418 -139q-156 0 -264.5 39.5t-162.5 112.5t-76.5 154t-22.5 185zM408 1618l290 186l301 -182l-79 -129l-224 133l-217 -133z" />
<glyph unicode="&#xdc;" horiz-adv-x="1406" d="M160 471v911h223v-895q0 -154 69.5 -238.5t247.5 -84.5q172 0 250 81t78 271v866h219v-850q0 -274 -143 -413t-418 -139q-156 0 -264.5 39.5t-162.5 112.5t-76.5 154t-22.5 185zM358 1626q0 51 36 87t87 36t88 -36t37 -87q0 -53 -37 -89t-88 -36t-87 36t-36 89zM760 1626 q0 51 37 87t88 36t87 -36t36 -87t-36 -88t-87 -37q-53 0 -89 36t-36 89z" />
<glyph unicode="&#xdd;" horiz-adv-x="1122" d="M12 1382h244l205 -436q55 -123 98 -233h4q37 100 115 258l194 411h236l-440 -888v-494h-224v494zM451 1606l321 225l98 -152l-338 -198z" />
<glyph unicode="&#xde;" horiz-adv-x="1097" d="M160 -2v1384h223v-213q94 4 143 5q244 0 381 -110t137 -314q0 -211 -155.5 -345.5t-399.5 -134.5q-33 0 -106 9v-281h-223zM383 463q51 -6 102 -6q147 2 237.5 78.5t90.5 205.5q0 115 -77 183.5t-242 68.5q-59 0 -111 -8v-522z" />
<glyph unicode="&#xdf;" horiz-adv-x="1226" d="M160 0v1018q0 254 132 373.5t345 119.5q182 0 286.5 -78.5t104.5 -209.5q0 -76 -27.5 -130.5t-65.5 -86t-77 -58t-66.5 -63.5t-27.5 -84q0 -53 40 -94t97 -73t114.5 -69t97.5 -101.5t40 -150.5q0 -150 -113.5 -241.5t-302.5 -91.5q-121 0 -209 24l9 186q90 -39 192 -38 q100 0 149.5 38.5t49.5 98.5q0 55 -40 96t-97.5 71.5t-113.5 66.5t-96 100.5t-40 152.5q0 68 26.5 120t65.5 85t78 63.5t65.5 71.5t26.5 90q0 66 -48 100.5t-128 34.5q-248 0 -248 -311v-1030h-219z" />
<glyph unicode="&#xe0;" horiz-adv-x="1116" d="M88 240q0 174 162 271t438 97v66q0 98 -48 145t-165 47q-170 0 -303 -82l-20 187q174 68 358 67q221 0 309 -87t88 -257v-524q84 -14 178 -20v-136q-215 -23 -383 -14q0 119 11 188l-2 2q-39 -94 -129 -152t-209 -58q-131 0 -208 69.5t-77 190.5zM279 1364l100 154 l321 -228l-84 -125zM299 276q0 -57 38 -90.5t101 -33.5q109 0 179.5 87t70.5 201v21q-389 -1 -389 -185z" />
<glyph unicode="&#xe1;" horiz-adv-x="1116" d="M88 240q0 174 162 271t438 97v66q0 98 -48 145t-165 47q-170 0 -303 -82l-20 187q174 68 358 67q221 0 309 -87t88 -257v-524q84 -14 178 -20v-136q-215 -23 -383 -14q0 119 11 188l-2 2q-39 -94 -129 -152t-209 -58q-131 0 -208 69.5t-77 190.5zM299 276q0 -57 38 -90.5 t101 -33.5q109 0 179.5 87t70.5 201v21q-389 -1 -389 -185zM383 1290l322 226l98 -150l-338 -201z" />
<glyph unicode="&#xe2;" horiz-adv-x="1116" d="M88 240q0 174 162 271t438 97v66q0 98 -48 145t-165 47q-170 0 -303 -82l-20 187q174 68 358 67q221 0 309 -87t88 -257v-524q84 -14 178 -20v-136q-215 -23 -383 -14q0 119 11 188l-2 2q-39 -94 -129 -152t-209 -58q-131 0 -208 69.5t-77 190.5zM238 1303l290 186 l301 -182l-79 -129l-224 133l-217 -133zM299 276q0 -57 38 -90.5t101 -33.5q109 0 179.5 87t70.5 201v21q-389 -1 -389 -185z" />
<glyph unicode="&#xe3;" horiz-adv-x="1116" d="M88 240q0 174 162 271t438 97v66q0 98 -48 145t-165 47q-170 0 -303 -82l-20 187q174 68 358 67q221 0 309 -87t88 -257v-524q84 -14 178 -20v-136q-215 -23 -383 -14q0 119 11 188l-2 2q-39 -94 -129 -152t-209 -58q-131 0 -208 69.5t-77 190.5zM174 1378q92 86 203 86 q74 0 162 -50t141 -50q74 0 143 66l45 -146q-33 -33 -90 -58.5t-110 -25.5q-80 0 -166 49t-144 49q-74 0 -137 -67zM299 276q0 -57 38 -90.5t101 -33.5q109 0 179.5 87t70.5 201v21q-389 -1 -389 -185z" />
<glyph unicode="&#xe4;" horiz-adv-x="1116" d="M88 240q0 174 162 271t438 97v66q0 98 -48 145t-165 47q-170 0 -303 -82l-20 187q174 68 358 67q221 0 309 -87t88 -257v-524q84 -14 178 -20v-136q-215 -23 -383 -14q0 119 11 188l-2 2q-39 -94 -129 -152t-209 -58q-131 0 -208 69.5t-77 190.5zM203 1335q0 51 35.5 87 t87 36t88.5 -36t37 -87q0 -53 -37 -89t-88.5 -36t-87 36t-35.5 89zM299 276q0 -57 38 -90.5t101 -33.5q109 0 179.5 87t70.5 201v21q-389 -1 -389 -185zM604 1335q0 51 37 87t88 36t87 -36t36 -87t-36 -88t-87 -37q-53 0 -89 36t-36 89z" />
<glyph unicode="&#xe5;" horiz-adv-x="1116" d="M88 240q0 174 162 271t438 97v66q0 98 -48 145t-165 47q-170 0 -303 -82l-20 187q174 68 358 67q221 0 309 -87t88 -257v-524q84 -14 178 -20v-136q-215 -23 -383 -14q0 119 11 188l-2 2q-39 -94 -129 -152t-209 -58q-131 0 -208 69.5t-77 190.5zM285 1360 q0 100 71.5 167.5t174 67.5t173 -67.5t70.5 -167.5q0 -98 -71.5 -167t-172.5 -69q-104 0 -174.5 67t-70.5 169zM299 276q0 -57 38 -90.5t101 -33.5q109 0 179.5 87t70.5 201v21q-389 -1 -389 -185zM420 1360q0 -47 31.5 -80t78.5 -33q45 0 77 33t32 80t-32 80t-77 33 q-47 0 -78.5 -33t-31.5 -80z" />
<glyph unicode="&#xe6;" horiz-adv-x="1646" d="M88 240q0 174 162 271t438 97v66q0 96 -49 144t-164 48q-170 0 -303 -82l-20 187q180 70 358 69q233 0 321 -143h3q47 63 128.5 102t180.5 39q209 0 312.5 -122.5t103.5 -317.5q0 -45 -7 -102h-649q-8 -342 301 -342q162 0 299 65l19 -174q-156 -66 -353 -65 q-317 0 -419 223l-2 -2q-51 -94 -146.5 -157.5t-230.5 -63.5q-131 0 -207 69.5t-76 190.5zM299 276q0 -57 38 -90.5t101 -33.5q109 0 179.5 87t70.5 201v21q-389 -1 -389 -185zM907 649h432q2 104 -53 166t-151 62q-90 0 -151 -62t-77 -166z" />
<glyph unicode="&#xe7;" horiz-adv-x="882" d="M78 475q0 254 131 406.5t385 152.5q117 0 221 -30l-22 -191q-106 39 -205 39q-137 0 -209 -94t-72 -258q0 -328 271 -328q127 0 221 49l18 -186q-129 -51 -287 -51q-452 -1 -452 491zM311 -416q186 133 86 312h205q121 -246 -190 -398z" />
<glyph unicode="&#xe8;" horiz-adv-x="1046" d="M78 502q0 238 124 387t341 149q207 0 311 -122.5t104 -317.5q0 -45 -6 -102h-649q-8 -342 301 -342q162 0 297 65l21 -174q-156 -66 -353 -65q-491 0 -491 522zM279 1364l100 154l321 -228l-84 -125zM307 649h432q2 104 -53 166t-151 62q-92 0 -153 -62t-75 -166z" />
<glyph unicode="&#xe9;" horiz-adv-x="1046" d="M78 502q0 238 124 387t341 149q207 0 311 -122.5t104 -317.5q0 -45 -6 -102h-649q-8 -342 301 -342q162 0 297 65l21 -174q-156 -66 -353 -65q-491 0 -491 522zM307 649h432q2 104 -53 166t-151 62q-92 0 -153 -62t-75 -166zM393 1290l322 226l98 -150l-338 -201z" />
<glyph unicode="&#xea;" horiz-adv-x="1046" d="M78 502q0 238 124 387t341 149q207 0 311 -122.5t104 -317.5q0 -45 -6 -102h-649q-8 -342 301 -342q162 0 297 65l21 -174q-156 -66 -353 -65q-491 0 -491 522zM248 1303l291 186l301 -182l-80 -129l-223 133l-218 -133zM307 649h432q2 104 -53 166t-151 62 q-92 0 -153 -62t-75 -166z" />
<glyph unicode="&#xeb;" horiz-adv-x="1046" d="M78 502q0 238 124 387t341 149q207 0 311 -122.5t104 -317.5q0 -45 -6 -102h-649q-8 -342 301 -342q162 0 297 65l21 -174q-156 -66 -353 -65q-491 0 -491 522zM217 1335q0 51 36 87t87 36t88 -36t37 -87q0 -53 -36 -89t-89 -36q-51 0 -87 36t-36 89zM307 649h432 q2 104 -53 166t-151 62q-92 0 -153 -62t-75 -166zM618 1335q0 51 37 87t88.5 36t87 -36t35.5 -87t-35.5 -88t-87 -37t-88.5 36t-37 89z" />
<glyph unicode="&#xec;" horiz-adv-x="595" d="M41 868v136q213 23 395 14v-1018h-217v848q-84 14 -178 20zM43 1364l100 154l322 -228l-84 -125z" />
<glyph unicode="&#xed;" horiz-adv-x="595" d="M41 868v136q213 23 395 14v-1018h-217v848q-84 14 -178 20zM104 1290l322 226l98 -150l-338 -201z" />
<glyph unicode="&#xee;" horiz-adv-x="595" d="M12 1303l293 186l299 -182l-78 -129l-223 133l-217 -133zM41 868v136q213 23 395 14v-1018h-217v848q-84 14 -178 20z" />
<glyph unicode="&#xef;" horiz-adv-x="595" d="M-27 1335q0 51 36 87t87 36t88 -36t37 -87q0 -53 -37 -89t-88 -36t-87 37t-36 88zM41 868v136q213 23 395 14v-1018h-217v848q-84 14 -178 20zM375 1335q0 51 37 87t88 36t87 -36t36 -87t-36 -88t-87 -37q-53 0 -89 36t-36 89z" />
<glyph unicode="&#xf0;" horiz-adv-x="1161" d="M90 465q0 246 135 386t344 140q164 0 240 -92q-55 205 -154 309l-184 -125l-127 101l166 112q-80 49 -188 50q-55 0 -121 -11v172q74 6 116 6q201 0 345 -83l165 112l127 -102l-151 -109q238 -233 237 -727q0 -319 -143 -471.5t-354 -150.5q-219 0 -336 129t-117 354z M311 471q0 -139 67.5 -220t180.5 -81q260 2 260 375q0 272 -239 272q-121 0 -195 -85t-74 -261z" />
<glyph unicode="&#xf1;" horiz-adv-x="1232" d="M41 868v136q213 23 387 14q0 -106 -16 -199l4 -2q47 102 138 161.5t214 59.5q305 0 305 -325v-713h-217v655q0 100 -34 150.5t-120 50.5q-113 0 -189.5 -105.5t-76.5 -258.5v-492h-217v848q-84 14 -178 20zM283 1378q94 86 202 86q74 0 162 -50t141 -50q74 0 144 66 l45 -146q-33 -33 -90.5 -58.5t-110.5 -25.5q-80 0 -166 49t-143 49q-74 0 -137 -67z" />
<glyph unicode="&#xf2;" horiz-adv-x="1124" d="M74 496q0 236 140 389t368 153q215 0 340 -126t125 -384q0 -238 -141.5 -393t-364.5 -155q-219 0 -343 128t-124 388zM301 518q0 -350 260 -350q113 0 186.5 89t73.5 257q0 340 -258 340q-109 0 -185.5 -86t-76.5 -250zM313 1364l101 154l321 -228l-84 -125z" />
<glyph unicode="&#xf3;" horiz-adv-x="1124" d="M74 496q0 236 140 389t368 153q215 0 340 -126t125 -384q0 -238 -141.5 -393t-364.5 -155q-219 0 -343 128t-124 388zM301 518q0 -350 260 -350q113 0 186.5 89t73.5 257q0 340 -258 340q-109 0 -185.5 -86t-76.5 -250zM422 1290l321 226l99 -150l-338 -201z" />
<glyph unicode="&#xf4;" horiz-adv-x="1124" d="M74 496q0 236 140 389t368 153q215 0 340 -126t125 -384q0 -238 -141.5 -393t-364.5 -155q-219 0 -343 128t-124 388zM272 1303l291 186l301 -182l-80 -129l-223 133l-217 -133zM301 518q0 -350 260 -350q113 0 186.5 89t73.5 257q0 340 -258 340q-109 0 -185.5 -86 t-76.5 -250z" />
<glyph unicode="&#xf5;" horiz-adv-x="1124" d="M74 496q0 236 140 389t368 153q215 0 340 -126t125 -384q0 -238 -141.5 -393t-364.5 -155q-219 0 -343 128t-124 388zM221 1378q94 86 203 86q74 0 162 -50t141 -50q74 0 143 66l45 -146q-33 -33 -90 -58.5t-110 -25.5q-80 0 -166 49t-143 49q-74 0 -138 -67zM301 518 q0 -350 260 -350q113 0 186.5 89t73.5 257q0 340 -258 340q-109 0 -185.5 -86t-76.5 -250z" />
<glyph unicode="&#xf6;" horiz-adv-x="1124" d="M74 496q0 236 140 389t368 153q215 0 340 -126t125 -384q0 -238 -141.5 -393t-364.5 -155q-219 0 -343 128t-124 388zM240 1335q0 51 35.5 87t87 36t88 -36t36.5 -87q0 -53 -36.5 -89t-88 -36t-87 36t-35.5 89zM301 518q0 -350 260 -350q113 0 186.5 89t73.5 257 q0 340 -258 340q-109 0 -185.5 -86t-76.5 -250zM641 1335q0 51 37 87t88 36t87 -36t36 -87t-36 -88t-87 -37q-53 0 -89 36t-36 89z" />
<glyph unicode="&#xf7;" horiz-adv-x="1218" d="M96 436v185h1026v-185h-1026zM469 114.5q0 57.5 41 99.5t98 42q59 0 100.5 -42t41.5 -99.5t-42 -98.5t-99.5 -41t-98.5 41t-41 98.5zM469 940q0 57 41 98t98.5 41t99.5 -41t42 -98q0 -59 -41 -100t-101 -41q-57 0 -98 42t-41 99z" />
<glyph unicode="&#xf8;" horiz-adv-x="1116" d="M70 500q0 238 136 388t363 150q49 0 97 -6l73 191l133 -43l-71 -187q233 -113 233 -467q0 -240 -138 -393t-361 -153q-70 0 -121 14l-80 -209l-133 41l82 211q-213 121 -213 463zM274 512q0 -182 88 -270l236 616q-45 4 -72 2q-102 -6 -177 -93t-75 -255zM483 170 q49 -14 95 -12q109 6 179 97t70 263q0 203 -104 281z" />
<glyph unicode="&#xf9;" horiz-adv-x="1273" d="M35 868v136q223 23 397 14v-656q0 -102 34 -151t118 -49q113 0 189.5 105.5t76.5 258.5v492h217v-848q84 -14 178 -20v-136q-213 -23 -385 -14q0 113 14 199l-4 2q-47 -102 -138 -161.5t-214 -59.5q-305 0 -305 325v543q-84 14 -178 20zM336 1364l100 154l322 -228 l-84 -125z" />
<glyph unicode="&#xfa;" horiz-adv-x="1273" d="M35 868v136q223 23 397 14v-656q0 -102 34 -151t118 -49q113 0 189.5 105.5t76.5 258.5v492h217v-848q84 -14 178 -20v-136q-213 -23 -385 -14q0 113 14 199l-4 2q-47 -102 -138 -161.5t-214 -59.5q-305 0 -305 325v543q-84 14 -178 20zM498 1290l321 226l99 -150 l-338 -201z" />
<glyph unicode="&#xfb;" horiz-adv-x="1273" d="M35 868v136q223 23 397 14v-656q0 -102 34 -151t118 -49q113 0 189.5 105.5t76.5 258.5v492h217v-848q84 -14 178 -20v-136q-213 -23 -385 -14q0 113 14 199l-4 2q-47 -102 -138 -161.5t-214 -59.5q-305 0 -305 325v543q-84 14 -178 20zM340 1303l291 186l301 -182 l-80 -129l-223 133l-217 -133z" />
<glyph unicode="&#xfc;" horiz-adv-x="1273" d="M35 868v136q223 23 397 14v-656q0 -102 34 -151t118 -49q113 0 189.5 105.5t76.5 258.5v492h217v-848q84 -14 178 -20v-136q-213 -23 -385 -14q0 113 14 199l-4 2q-47 -102 -138 -161.5t-214 -59.5q-305 0 -305 325v543q-84 14 -178 20zM305 1335q0 51 36 87t87 36 t88 -36t37 -87q0 -53 -37 -89t-88 -36t-87 36t-36 89zM707 1335q0 51 36.5 87t88 36t87 -36t35.5 -87t-35.5 -88t-87.5 -37q-53 0 -88.5 36t-35.5 89z" />
<glyph unicode="&#xfd;" horiz-adv-x="1003" d="M-12 -508l16 191q61 -25 131 -25q76 0 124 48t95 177l43 117l-381 1018h246l166 -465q39 -109 80 -266h2q31 127 100 317l146 414h235l-424 -1127q-92 -240 -184 -328.5t-260 -88.5q-69 0 -135 18zM387 1290l320 226l100 -150l-340 -201z" />
<glyph unicode="&#xfe;" horiz-adv-x="1163" d="M2 1346v135q215 23 397 14v-434q0 -150 -12 -219h4q41 90 124 143t196 53q180 0 276 -123.5t96 -355.5q0 -270 -138 -421.5t-392 -151.5q-90 0 -154 12v-510h-219v1837q-84 15 -178 21zM399 178q68 -20 162 -20q293 0 293 381q0 319 -203 319q-115 0 -183.5 -111.5 t-68.5 -254.5v-314z" />
<glyph unicode="&#xff;" horiz-adv-x="1003" d="M-16 -500l16 193q61 -23 133 -23q78 0 127 47t96 174l41 109l-381 1018h246l166 -465q37 -100 80 -266h2q31 127 100 317l146 414h235l-422 -1116q-90 -240 -184 -328t-264 -88q-65 0 -137 14zM180 1335q0 51 36 87t87 36t88 -36t37 -87q0 -53 -36 -89t-89 -36 q-51 0 -87 36t-36 89zM582 1335q0 51 36.5 87t88 36t87 -36t35.5 -87t-35.5 -88t-87 -37t-88 36t-36.5 89z" />
<glyph unicode="&#x152;" horiz-adv-x="1693" d="M78 678q0 326 185.5 521.5t461.5 195.5q57 0 143 -6.5t125 -6.5h570v-186h-506v-393h481v-182h-481v-431h506v-190h-562q-57 0 -157.5 -7t-155.5 -7q-305 0 -457.5 186.5t-152.5 505.5zM311 698q0 -238 98.5 -377t309.5 -139q74 0 123 13v995q-68 10 -125 10 q-172 0 -289 -136.5t-117 -365.5z" />
<glyph unicode="&#x153;" horiz-adv-x="1773" d="M74 502q0 236 138 386t363 150q246 0 355 -174q119 174 342 174q207 0 311.5 -122.5t104.5 -317.5q0 -51 -9 -102h-649q-6 -342 301 -342q166 0 301 65l19 -174q-160 -66 -355 -65q-281 0 -393 190q-125 -190 -368 -190q-227 0 -344 138t-117 384zM291 512 q0 -350 264 -350q115 0 188.5 90t73.5 262q0 344 -262 344q-109 0 -186.5 -84t-77.5 -262zM1034 649h432q4 104 -51 166t-151 62q-92 0 -154 -63t-76 -165z" />
<glyph unicode="&#x178;" horiz-adv-x="1122" d="M12 1382h244l205 -436q55 -123 98 -233h4q37 100 115 258l194 411h236l-440 -888v-494h-224v494zM233 1626q0 51 36 87t87.5 36t88 -36t36.5 -87q0 -53 -35.5 -89t-89.5 -36q-51 0 -87 36t-36 89zM635 1626q0 51 37 87t88 36t87 -36t36 -87t-36 -88t-87 -37t-88 36 t-37 89z" />
<glyph unicode="&#x2c6;" horiz-adv-x="880" d="M145 1303l291 186l301 -182l-80 -129l-223 133l-217 -133z" />
<glyph unicode="&#x2dc;" horiz-adv-x="989" d="M164 1378q94 86 203 86q74 0 161.5 -50t141.5 -50q74 0 143 66l45 -146q-33 -33 -90 -58.5t-111 -25.5q-80 0 -165.5 49t-143.5 49q-74 0 -137 -67z" />
<glyph unicode="&#x2000;" horiz-adv-x="915" />
<glyph unicode="&#x2001;" horiz-adv-x="1832" />
<glyph unicode="&#x2002;" horiz-adv-x="915" />
<glyph unicode="&#x2003;" horiz-adv-x="1832" />
<glyph unicode="&#x2004;" horiz-adv-x="610" />
<glyph unicode="&#x2005;" horiz-adv-x="456" />
<glyph unicode="&#x2006;" horiz-adv-x="305" />
<glyph unicode="&#x2007;" horiz-adv-x="305" />
<glyph unicode="&#x2008;" horiz-adv-x="227" />
<glyph unicode="&#x2009;" horiz-adv-x="366" />
<glyph unicode="&#x200a;" horiz-adv-x="100" />
<glyph unicode="&#x2010;" horiz-adv-x="679" d="M94 428v176h492v-176h-492z" />
<glyph unicode="&#x2011;" horiz-adv-x="679" d="M94 428v176h492v-176h-492z" />
<glyph unicode="&#x2012;" horiz-adv-x="679" d="M94 428v176h492v-176h-492z" />
<glyph unicode="&#x2013;" horiz-adv-x="1024" d="M0 496v192h1024v-192h-1024z" />
<glyph unicode="&#x2014;" horiz-adv-x="2048" d="M0 496v192h2048v-192h-2048z" />
<glyph unicode="&#x2018;" horiz-adv-x="520" d="M123 1024q-41 82 11 227.5t214 288.5l92 -82q-178 -190 -86 -303q51 -59 17.5 -136t-119.5 -77q-88 0 -129 82z" />
<glyph unicode="&#x2019;" horiz-adv-x="520" d="M78 1010q174 190 86 303q-53 59 -19.5 136t121.5 77t129 -82t-12 -227.5t-213 -288.5z" />
<glyph unicode="&#x201a;" horiz-adv-x="520" d="M78 -252q176 193 86 303q-53 61 -19.5 137t121.5 76t129 -82t-12 -227t-213 -289z" />
<glyph unicode="&#x201c;" horiz-adv-x="935" d="M123 1024q-41 82 11 227.5t214 288.5l92 -82q-178 -190 -86 -303q51 -59 17.5 -136t-119.5 -77q-88 0 -129 82zM537 1024q-41 82 12 227.5t215 288.5l92 -82q-178 -190 -86 -303q51 -59 16.5 -136t-120.5 -77q-88 0 -129 82z" />
<glyph unicode="&#x201d;" horiz-adv-x="935" d="M78 1010q174 190 86 303q-53 59 -19.5 136t121.5 77t129 -82t-12 -227.5t-213 -288.5zM492 1010q178 190 86 303q-51 59 -16.5 136t120.5 77q88 0 129 -82t-12.5 -227.5t-214.5 -288.5z" />
<glyph unicode="&#x201e;" horiz-adv-x="935" d="M78 -252q176 193 86 303q-53 61 -19.5 137t121.5 76t129 -82t-12 -227t-213 -289zM492 -252q178 193 86 303q-51 61 -17.5 137t121.5 76t129 -82t-12.5 -227t-214.5 -289z" />
<glyph unicode="&#x2022;" horiz-adv-x="880" d="M158 600q0 113 79.5 192.5t192.5 79.5t192.5 -79.5t79.5 -192.5t-79.5 -192.5t-192.5 -79.5t-192.5 79.5t-79.5 192.5z" />
<glyph unicode="&#x2026;" horiz-adv-x="1447" d="M102 125q0 59 43 101t102.5 42t102.5 -42t43 -101t-43 -102t-102.5 -43t-102.5 43t-43 102zM571 125q0 59 43 101t102.5 42t102.5 -42t43 -101t-43 -102t-102.5 -43t-102.5 43t-43 102zM1040 125q0 59 43 101t102.5 42t102.5 -42t43 -101t-43 -102t-102.5 -43t-102.5 43 t-43 102z" />
<glyph unicode="&#x202f;" horiz-adv-x="366" />
<glyph unicode="&#x2039;" horiz-adv-x="641" d="M98 506l242 383l166 -86l-197 -297l197 -289l-172 -90z" />
<glyph unicode="&#x203a;" horiz-adv-x="641" d="M135 215l195 295l-195 291l172 88l236 -379l-242 -383z" />
<glyph unicode="&#x205f;" horiz-adv-x="456" />
<glyph unicode="&#x20ac;" horiz-adv-x="1126" d="M27 463v135h166q-2 18 -3 53q0 43 5 121h-168v135h186q94 496 573 496q133 0 252 -29l-39 -186q-115 33 -229 33q-268 0 -328 -314h363v-135h-379q-2 -27 -2 -84q0 -61 2 -90h379v-135h-365q29 -154 108 -226.5t224 -72.5q119 0 244 43l39 -172q-154 -55 -328 -55 q-459 0 -524 483h-176z" />
<glyph unicode="&#x2122;" horiz-adv-x="1421" d="M76 1249v133h450v-133h-143v-442h-160v442h-147zM553 807l90 575h199l80 -286l20 -90l16 84l84 292h197l92 -575h-166l-41 278l-12 103l-20 -92l-82 -289h-156l-80 295l-20 86l-6 -74l-43 -307h-152z" />
<glyph unicode="&#xe000;" horiz-adv-x="1020" d="M0 1020h1020v-1020h-1020v1020z" />
<glyph unicode="&#xf001;" horiz-adv-x="1212" d="M16 848v170h195v41q0 453 485 452q150 0 301 -38l-39 -183q-129 41 -249 41q-281 0 -281 -254v-59h625v-1018h-217v848h-408v-848h-217v848h-195z" />
<glyph unicode="&#xfb01;" horiz-adv-x="1212" d="M16 848v170h195v41q0 453 485 452q150 0 301 -38l-39 -183q-129 41 -249 41q-281 0 -281 -254v-59h625v-1018h-217v848h-408v-848h-217v848h-195z" />
<glyph unicode="&#xf002;" horiz-adv-x="1212" d="M16 848v170h195v108q0 180 119 282.5t364 102.5q139 0 359 -32v-1479h-217v1319q-78 14 -162 14q-246 0 -246 -221v-94h254v-170h-254v-848h-217v848h-195z" />
<glyph unicode="&#xfb02;" horiz-adv-x="1212" d="M16 848v170h195v108q0 180 119 282.5t364 102.5q139 0 359 -32v-1479h-217v1319q-78 14 -162 14q-246 0 -246 -221v-94h254v-170h-254v-848h-217v848h-195z" />
<glyph unicode="&#xfb03;" horiz-adv-x="1828" d="M16 848v170h195v49q0 195 110.5 309.5t352.5 114.5q178 0 319 -59q121 80 328 79q145 0 305 -38l-41 -183q-137 41 -254 41q-283 0 -282 -254v-59h624v-1018h-219v848h-405v-848h-220v848h-401v-848h-217v848h-195zM428 1018h401v41q0 129 45 213q-96 41 -212 41 q-233 0 -234 -230v-65z" />
<glyph unicode="&#xfb04;" horiz-adv-x="1828" d="M16 848v170h195v49q0 195 110.5 309.5t352.5 114.5q168 0 313 -57q115 78 326 77q139 0 360 -32v-1479h-219v1319q-78 14 -162 14q-125 0 -184 -53t-59 -168v-94h251v-170h-251v-848h-220v848h-401v-848h-217v848h-195zM428 1018h401v108q0 88 33 152q-88 35 -200 35 q-233 0 -234 -230v-65z" />
</font>
</defs>
</svg>
