<?xml version="1.0" standalone="no"?>
<!DOCTYPE svg PUBLIC "-//W3C//DTD SVG 1.1//EN" "http://www.w3.org/Graphics/SVG/1.1/DTD/svg11.dtd" >
<svg xmlns="http://www.w3.org/2000/svg">
<metadata></metadata>
<defs>
<font id="themixblack" horiz-adv-x="1167" >
<font-face units-per-em="2048" ascent="1536" descent="-512" />
<missing-glyph horiz-adv-x="446" />
<glyph unicode="&#xfb01;" horiz-adv-x="1234" d="M20 731v287h130v24q0 243 131.5 361.5t410.5 118.5q178 0 359 -39l-60 -309q-129 38 -252 38q-116 0 -166.5 -37t-50.5 -120v-37h617v-1018h-373v731h-244v-731h-372v731h-130z" />
<glyph unicode="&#xfb02;" horiz-adv-x="1234" d="M20 731v287h130v72q0 95 29.5 171t92.5 136t172 92.5t258 32.5q169 0 437 -43v-1479h-373v1206q-41 8 -94 8q-70 0 -110 -34t-40 -97v-65h150v-287h-150v-731h-372v731h-130z" />
<glyph unicode="&#xfb03;" horiz-adv-x="1843" d="M20 731v287h130v45q0 223 132 329.5t394 106.5q149 0 299 -43q126 66 346 66q173 0 371 -39l-64 -309q-149 38 -264 38q-117 0 -171 -37.5t-54 -119.5v-37h616v-1018h-373v731h-243v-731h-373v731h-244v-731h-372v731h-130zM522 1018h244v24q0 74 12 136q-49 16 -119 16 q-137 0 -137 -123v-53z" />
<glyph unicode="&#xfb04;" horiz-adv-x="1843" d="M20 731v287h130v45q0 223 132 329.5t394 106.5q153 0 303 -43q132 66 340 66q168 0 436 -43v-1479h-373v1206q-41 8 -94 8q-70 0 -109.5 -33.5t-39.5 -97.5v-65h149v-287h-149v-731h-373v731h-244v-731h-372v731h-130zM522 1018h244v72q0 44 6 90q-48 14 -113 14 q-137 0 -137 -123v-53z" />
<glyph horiz-adv-x="2048" />
<glyph horiz-adv-x="2048" />
<glyph horiz-adv-x="682" />
<glyph unicode="&#x9;" horiz-adv-x="446" />
<glyph unicode="&#xd;" horiz-adv-x="446" />
<glyph unicode=" "  horiz-adv-x="446" />
<glyph unicode="&#x09;" horiz-adv-x="446" />
<glyph unicode="&#xa0;" horiz-adv-x="446" />
<glyph unicode="!" horiz-adv-x="632" d="M98 1495h437l-52 -1053h-327zM100 176q0 87 61.5 146t151.5 59t151.5 -59t61.5 -146t-61.5 -146t-151.5 -59t-151.5 59t-61.5 146z" />
<glyph unicode="&#x22;" horiz-adv-x="944" d="M66 1563h362l-41 -594h-281zM516 1563h363l-41 -594h-281z" />
<glyph unicode="#" horiz-adv-x="1460" d="M47 317v279h254l23 201h-215v278h243l31 307h326l-31 -307h180l31 307h328l-31 -307h227v-278h-256l-22 -201h217v-279h-246l-33 -317h-328l33 317h-180l-33 -317h-325l32 317h-225zM627 596h180l22 201h-180z" />
<glyph unicode="$" horiz-adv-x="1024" d="M61 877q0 139 86 246t226 145v190h260v-170q107 -4 201 -24l-27 -312q-114 33 -221 33q-133 0 -133 -76q0 -24 21.5 -43t57 -32t80.5 -30.5t92.5 -35.5t92.5 -50.5t80.5 -72.5t57 -103t21.5 -141q0 -141 -89.5 -252t-241.5 -157v-225h-260v204q-87 4 -238 23l25 330 q121 -39 249 -39q76 0 117 21.5t41 62.5q0 31 -27.5 54t-71.5 39.5t-97 34t-106 46t-97 68.5t-71.5 108t-27.5 158z" />
<glyph unicode="%" horiz-adv-x="1710" d="M55 1065q0 171 108 276t261 105q160 0 259 -89t99 -267q0 -174 -109.5 -282t-264.5 -108q-165 0 -259 98.5t-94 266.5zM209 133l1022 1313l270 -197l-1022 -1312zM358 1073q0 -71 16 -96t44 -25q27 0 45 31t18 92q0 70 -14.5 94.5t-44.5 24.5q-28 0 -46 -30.5t-18 -90.5z M932 301q0 172 107.5 276.5t260.5 104.5q160 0 259.5 -89t99.5 -267q0 -174 -110 -281.5t-265 -107.5q-165 0 -258.5 98t-93.5 266zM1235 309q0 -71 15.5 -96t43.5 -25q27 0 45.5 31t18.5 92q0 70 -14.5 94.5t-45.5 24.5q-28 0 -45.5 -30.5t-17.5 -90.5z" />
<glyph unicode="&#x26;" horiz-adv-x="1656" d="M72 389q0 122 56.5 216.5t154.5 178.5q-164 182 -164 355q0 162 125.5 272.5t343.5 110.5q200 0 310 -90.5t110 -249.5q0 -116 -59 -208t-163 -179q136 -108 314 -232q18 28 34 70t19 76q-54 10 -137 20v225q256 26 514 17q30 -335 -158 -598q12 -8 92 -63.5t127 -86.5 l-248 -282q-36 24 -251 176q-92 -64 -231 -105t-290 -41q-104 0 -188.5 23.5t-141.5 63t-95.5 93.5t-56 113.5t-17.5 124.5zM461 432q0 -53 47 -97t121 -44q75 0 176 35q-190 144 -291 233q-53 -63 -53 -127zM487 1159q0 -66 70 -153q82 79 82 155q0 34 -19.5 57t-54.5 23 q-34 0 -56 -23.5t-22 -58.5z" />
<glyph unicode="'" horiz-adv-x="493" d="M66 1563h362l-41 -594h-281z" />
<glyph unicode="(" horiz-adv-x="634" d="M53 586q0 533 273 983h350q-254 -432 -254 -975q0 -545 262 -989h-360q-271 445 -271 981z" />
<glyph unicode=")" horiz-adv-x="634" d="M-47 -395q125 212 191.5 462.5t66.5 518.5q0 272 -67 523t-191 460h360q267 -451 267 -975q0 -543 -275 -989h-352z" />
<glyph unicode="*" horiz-adv-x="819" d="M41 1077l205 66l-205 65l129 222l158 -146l-47 211h256l-45 -211l157 146l129 -222l-205 -65l205 -66l-129 -221l-157 145l47 -210h-258l47 210l-160 -143z" />
<glyph unicode="+" d="M41 373v311h365v369h356v-369h364v-311h-364v-373h-356v373h-365z" />
<glyph unicode="," horiz-adv-x="614" d="M61 -276q113 120 129 195t-51 149q-38 43 -45.5 102.5t13 112.5t74 90t126.5 37q109 0 174 -90q73 -103 45 -259q-39 -215 -255 -418q-29 -27 -60 -53z" />
<glyph unicode="-" horiz-adv-x="696" d="M82 381v297h532v-297h-532z" />
<glyph unicode="." horiz-adv-x="614" d="M82 195q0 92 66.5 158.5t158.5 66.5t158.5 -66.5t66.5 -158.5t-66.5 -159t-158.5 -67t-158.5 67t-66.5 159z" />
<glyph unicode="/" horiz-adv-x="886" d="M-2 0l528 1382h375l-526 -1382h-377z" />
<glyph unicode="0" horiz-adv-x="1230" d="M57 508q0 131 47 240t126.5 180t182 110t214.5 39q128 0 227 -35t158 -89t97 -129t51.5 -146t13.5 -148q0 -130 -46.5 -237t-126.5 -176.5t-184 -107.5t-221 -38q-88 0 -163.5 15.5t-146.5 53.5t-120.5 98t-79 154t-29.5 216zM428 528q0 -109 47 -169t143 -60 q80 0 132.5 60t52.5 173q0 107 -47.5 166.5t-137.5 59.5q-80 0 -135 -60t-55 -170z" />
<glyph unicode="1" horiz-adv-x="712" d="M2 932l330 121h282v-1053h-381v698l-176 -71z" />
<glyph unicode="2" horiz-adv-x="983" d="M66 0v305l104 72q183 127 242 183t59 108q0 86 -123 86q-55 0 -117 -20t-106 -48l-51 313q173 74 368 74q214 0 330.5 -88t116.5 -244q0 -114 -67.5 -212.5t-186.5 -172.5l-55 -34v-5q142 11 338 11v-328h-852z" />
<glyph unicode="3" horiz-adv-x="929" d="M41 -334l31 320q101 -33 198 -33q96 0 150.5 35t54.5 100q0 56 -47.5 87t-129 35t-189.5 -9v299q348 -3 348 151q0 46 -38.5 74.5t-111.5 28.5q-109 0 -215 -56l-35 306q149 61 332 61q222 0 341.5 -95.5t119.5 -244.5q0 -96 -52.5 -175t-140.5 -124v-2 q110 -30 167 -113.5t57 -193.5q0 -96 -40 -182.5t-115 -153.5t-193 -106.5t-263 -39.5q-112 0 -229 31z" />
<glyph unicode="4" horiz-adv-x="1165" d="M35 301l461 760h465v-727h174v-334h-174v-350h-367v350h-500zM391 332q45 2 211 2v368h-2z" />
<glyph unicode="5" horiz-adv-x="937" d="M49 -348l33 328q84 -15 166 -15q118 0 177.5 41.5t59.5 108.5q0 137 -260 137q-73 0 -135 -10v811h754v-367l-404 4v-141q202 0 322.5 -103t120.5 -284q0 -153 -84.5 -273.5t-232.5 -187t-333 -66.5q-94 0 -184 17z" />
<glyph unicode="6" horiz-adv-x="1187" d="M63 563q0 259 93.5 454t274 304t425.5 109q42 0 150 -5v-331q-96 14 -168 14q-128 0 -220 -50t-137 -147q-5 -11 -16 -45l2 -2q40 28 104.5 44t135.5 16q201 0 317.5 -120t116.5 -325q0 -223 -157.5 -365.5t-405.5 -142.5q-113 0 -206.5 37t-163 109t-107.5 186t-38 260z M477 463q0 -78 34.5 -123t96.5 -45q69 0 104.5 41t35.5 110q0 158 -134 158q-64 0 -100.5 -40t-36.5 -101z" />
<glyph unicode="7" horiz-adv-x="937" d="M35 686v367h868v-314q-212 -522 -311 -1089h-414q49 259 128 535.5t173 506.5q-282 -6 -444 -6z" />
<glyph unicode="8" horiz-adv-x="1157" d="M51 365q0 63 18.5 117.5t52 96t64 68.5t70.5 55l-2 3q-89 53 -140 135.5t-51 187.5q0 192 147.5 307t373.5 115q229 0 364 -98.5t135 -268.5q0 -104 -49.5 -180.5t-146.5 -146.5q219 -134 219 -346q0 -139 -75.5 -240t-199.5 -150t-280 -49q-228 0 -364 106t-136 288z M444 403q0 -54 36.5 -85t97.5 -31t97 30.5t36 77.5q0 89 -156 158h-2q-109 -73 -109 -150zM455 1042q0 -40 33.5 -71.5t103.5 -69.5l2 -2q51 39 77.5 74t26.5 78q0 38 -32 65t-91 27q-57 0 -88.5 -28t-31.5 -73z" />
<glyph unicode="9" horiz-adv-x="1187" d="M47 549q0 228 154.5 374t392.5 146q118 0 213.5 -36t167 -108t110.5 -188.5t39 -269.5q0 -144 -27.5 -266.5t-89.5 -228t-155 -179.5t-230 -116t-309 -42q-76 0 -151 17v336q69 -27 162 -27q139 0 227.5 39t124.5 135q3 7 8 22.5t8 22.5l-2 2q-84 -67 -229 -67 q-189 0 -301.5 120t-112.5 314zM436 598q0 -158 135 -158q65 0 99.5 45t34.5 119q0 62 -33.5 101.5t-96.5 39.5t-101 -41.5t-38 -105.5z" />
<glyph unicode=":" horiz-adv-x="614" d="M82 195q0 92 66.5 158.5t158.5 66.5t158.5 -66.5t66.5 -158.5t-66.5 -159t-158.5 -67t-158.5 67t-66.5 159zM82 745q0 92 66.5 159t158.5 67t158.5 -67t66.5 -159t-66.5 -158.5t-158.5 -66.5t-158.5 66.5t-66.5 158.5z" />
<glyph unicode=";" horiz-adv-x="614" d="M61 -276q113 120 129 195t-51 149q-38 43 -45.5 102.5t13 112.5t74 90t126.5 37q109 0 174 -90q73 -103 45 -259q-39 -215 -255 -418q-29 -27 -60 -53zM82 745q0 92 66.5 159t158.5 67t158.5 -67t66.5 -159t-66.5 -158.5t-158.5 -66.5t-158.5 66.5t-66.5 158.5z" />
<glyph unicode="&#x3c;" horiz-adv-x="1044" d="M63 510l658 635l248 -248l-424 -385l426 -387l-246 -252z" />
<glyph unicode="=" horiz-adv-x="1126" d="M102 141v297h922v-297h-922zM102 592v297h922v-297h-922z" />
<glyph unicode="&#x3e;" horiz-adv-x="1044" d="M74 895l245 252l662 -637l-657 -635l-248 248l424 385z" />
<glyph unicode="?" horiz-adv-x="909" d="M57 1167l45 338q160 -3 289 -30.5t213.5 -71.5t141.5 -103.5t81.5 -123t24.5 -132.5q0 -62 -16.5 -115.5t-42.5 -90t-58.5 -71t-65 -59.5t-61.5 -55.5t-48 -58t-24.5 -68t9.5 -84.5h-365q-33 86 -26.5 156t36 116.5t73 87.5t83.5 70t69 64.5t29 69.5q0 78 -100 119.5 t-287 41.5zM156 176q0 87 61.5 146t151.5 59t151.5 -59t61.5 -146t-61.5 -146t-151.5 -59t-151.5 59t-61.5 146z" />
<glyph unicode="@" horiz-adv-x="1595" d="M37 598q0 179 64 332t175.5 258t266 164t331.5 59q152 0 278.5 -43.5t211.5 -119t131.5 -178.5t46.5 -222q0 -254 -132.5 -387t-356.5 -133q-85 0 -135 35.5t-56 101.5h-8q-41 -62 -102.5 -99.5t-137.5 -37.5q-90 0 -144 69t-54 209q0 101 27 184t81 147.5t143 100 t205 35.5q136 0 232 -47l-57 -313q-9 -54 -9 -82.5t10.5 -42t36.5 -13.5q148 0 148 254q0 66 -20 120t-62.5 98.5t-117.5 69t-177 24.5q-141 0 -255 -62.5t-181.5 -180t-67.5 -269.5q0 -199 105.5 -297.5t349.5 -98.5q187 0 352 60v-262q-63 -31 -179 -49.5t-216 -18.5 q-361 0 -544 168t-183 467zM664 651q0 -46 6.5 -64t23.5 -18q33 0 68.5 57.5t58.5 176.5l10 55q-19 8 -43 8q-51 0 -87.5 -69.5t-36.5 -145.5z" />
<glyph unicode="A" horiz-adv-x="1312" d="M-23 0l451 1382h436l473 -1382h-415l-72 225h-426l-70 -225h-377zM516 524h238l-56 174q-50 160 -63 240h-4q-14 -95 -68 -262z" />
<glyph unicode="B" horiz-adv-x="1216" d="M98 0v1380q226 13 551 13q231 0 361.5 -90t130.5 -267q0 -91 -48.5 -168.5t-129.5 -119.5v-7q88 -30 143 -114t55 -185q0 -95 -36.5 -175.5t-107.5 -141t-184.5 -95t-257.5 -34.5q-23 0 -182.5 2t-294.5 2zM479 311q50 -4 99 -4q79 0 125.5 34t46.5 97q0 57 -43 92 t-129 35q-76 0 -99 -2v-252zM479 848q23 -2 82 -2q87 0 130.5 34.5t43.5 96.5q0 53 -39 80.5t-108 27.5q-43 0 -109 -4v-233z" />
<glyph unicode="C" horiz-adv-x="1107" d="M55 635q0 350 188.5 554t524.5 204q134 0 266 -33l-43 -344q-114 31 -223 31q-136 0 -214.5 -91.5t-78.5 -257.5q0 -183 74 -275.5t233 -92.5q48 0 108 10.5t101 28.5l45 -340q-146 -47 -325 -47q-113 0 -207 22t-160.5 58.5t-118.5 89t-83.5 109t-51.5 123t-27.5 127 t-7.5 124.5z" />
<glyph unicode="D" horiz-adv-x="1333" d="M98 2v1376q236 13 498 13q125 0 226.5 -21t188.5 -69.5t146 -124.5t92 -190t33 -261q0 -349 -201.5 -542t-543.5 -193q-231 0 -439 12zM479 326q28 -7 88 -7q135 0 219 95t84 280q0 70 -6 122t-24.5 102t-50.5 81.5t-86 50.5t-128 19q-67 0 -96 -4v-739z" />
<glyph unicode="E" horiz-adv-x="983" d="M98 0v1382h809v-323h-428v-195h406v-311h-406v-223h428v-330h-809z" />
<glyph unicode="F" horiz-adv-x="942" d="M98 0v1382h789v-327h-408v-224h385v-313h-385v-518h-381z" />
<glyph unicode="G" horiz-adv-x="1359" d="M53 653q0 167 57 306.5t161 238t257.5 153t339.5 54.5q206 0 406 -62l-57 -350q-176 68 -367 68q-184 0 -283.5 -104.5t-99.5 -276.5q0 -168 83.5 -262t254.5 -94q45 0 78 10v420h381v-682q-219 -97 -498 -97q-343 0 -528 181t-185 497z" />
<glyph unicode="H" horiz-adv-x="1372" d="M98 0v1382h381v-503h414v503h381v-1382h-381v545h-414v-545h-381z" />
<glyph unicode="I" horiz-adv-x="577" d="M98 0v1382h381v-1382h-381z" />
<glyph unicode="J" horiz-adv-x="702" d="M0 -6v319q50 -16 104 -16q61 0 92 32t31 103v950h381v-958q0 -70 -11.5 -131.5t-41 -121t-75 -101.5t-118.5 -67.5t-167 -25.5q-105 0 -195 17z" />
<glyph unicode="K" horiz-adv-x="1259" d="M98 0v1382h381v-591l299 591h461l-395 -665l418 -717h-490l-293 631v-631h-381z" />
<glyph unicode="L" horiz-adv-x="884" d="M98 0v1382h381v-1042h381v-340h-762z" />
<glyph unicode="M" horiz-adv-x="1781" d="M14 0l230 1382h430l145 -479q39 -130 74 -313h4q26 149 80 319l147 473h418l227 -1382h-399l-76 461q-28 184 -41 313h-4q-35 -184 -84 -362l-110 -412h-357l-108 367q-67 230 -90 407h-4q-10 -119 -41 -346l-58 -428h-383z" />
<glyph unicode="N" horiz-adv-x="1404" d="M98 0v1382h488l200 -411q136 -284 168 -359q-14 132 -14 287v483h367v-1382h-484l-231 473q-86 177 -137 311q10 -102 10 -219v-565h-367z" />
<glyph unicode="O" horiz-adv-x="1435" d="M43 672q0 164 55.5 303t150.5 234t223.5 148.5t272.5 53.5q139 0 253.5 -39t204.5 -120t140 -217.5t50 -319.5q0 -220 -94 -391t-253.5 -262t-355.5 -91q-320 0 -483.5 183t-163.5 518zM449 700q0 -378 260 -378q38 0 74.5 10.5t74.5 37.5t66 67.5t45.5 107.5t17.5 151 q0 367 -270 367q-52 0 -98.5 -21t-85 -62.5t-61.5 -113.5t-23 -166z" />
<glyph unicode="P" horiz-adv-x="1110" d="M98 0v1382q233 11 418 11q278 0 424.5 -117.5t146.5 -345.5q0 -102 -34.5 -192t-100.5 -161t-173 -112t-242 -41q-31 0 -58 2v-426h-381zM479 743q14 -2 29 -2q78 0 132 47t54 130q0 74 -43 119.5t-135 45.5q-21 0 -37 -2v-338z" />
<glyph unicode="Q" horiz-adv-x="1435" d="M43 672q0 164 55.5 303t150.5 234t223.5 148.5t272.5 53.5q139 0 253.5 -39t204.5 -120t140 -217.5t50 -319.5q0 -220 -94 -391t-253.5 -262t-355.5 -91q-320 0 -483.5 183t-163.5 518zM449 700q0 -378 260 -378q38 0 74.5 10.5t74.5 37.5t66 67.5t45.5 107.5t17.5 151 q0 367 -270 367q-52 0 -98.5 -21t-85 -62.5t-61.5 -113.5t-23 -166zM565 -98q80 9 154 9q27 0 54 -1q98 -5 161.5 -19t144.5 -26.5t155 -15.5h24q69 0 172 14v-332q-111 -19 -209 -19h-5q-101 1 -168.5 14.5t-147.5 27.5t-152 21q-27 3 -59 3q-55 0 -124 -8v332z" />
<glyph unicode="R" horiz-adv-x="1200" d="M98 0v1382q177 11 473 11q271 0 410 -103.5t139 -328.5q0 -127 -67.5 -232t-184.5 -147q57 -84 101 -160l248 -422h-463l-260 504h-15v-504h-381zM479 778q28 -4 64 -4q80 0 128 41.5t48 116.5q0 67 -40 107t-128 40q-48 0 -72 -4v-297z" />
<glyph unicode="S" horiz-adv-x="1028" d="M51 958q0 208 152.5 329.5t423.5 121.5q111 0 252 -23l-21 -329q-129 37 -246 37q-75 0 -113 -27t-38 -70q0 -35 28.5 -61.5t74 -46t100.5 -40.5t110 -52t100.5 -72.5t74 -109.5t28.5 -156q0 -212 -160.5 -349t-431.5 -137q-152 0 -285 29l21 348q138 -49 295 -49 q69 0 110 27.5t41 74.5q0 40 -28.5 68.5t-74 47t-100.5 37.5t-110 48.5t-100.5 71t-74 114t-28.5 168.5z" />
<glyph unicode="T" horiz-adv-x="1028" d="M25 1055v327h979v-327h-299v-1055h-381v1055h-299z" />
<glyph unicode="U" horiz-adv-x="1359" d="M98 500v882h381v-864q0 -116 44.5 -171.5t158.5 -55.5t158.5 53t44.5 184v854h377v-833q0 -293 -158 -435.5t-445 -142.5q-130 0 -228.5 27.5t-161 74t-101.5 115.5t-54.5 144t-15.5 168z" />
<glyph unicode="V" horiz-adv-x="1318" d="M-16 1382h409l211 -692q50 -160 68 -246h4q26 140 65 267l205 671h389l-448 -1382h-449z" />
<glyph unicode="W" horiz-adv-x="1945" d="M20 1382h404l127 -565q30 -132 43 -301h2q22 180 51 295l146 571h383l139 -551q40 -161 55 -303h2q22 164 55 322l115 532h383l-336 -1382h-463l-114 518q-31 133 -54 352h-2q-11 -162 -51 -338l-121 -532h-432z" />
<glyph unicode="X" horiz-adv-x="1374" d="M0 0l422 700l-397 682h440l217 -409l211 409h434l-391 -688l438 -694h-481l-219 418l-219 -418h-455z" />
<glyph unicode="Y" horiz-adv-x="1222" d="M-14 1382h413l129 -299q51 -117 82 -211h4q26 76 101 242l119 268h403l-438 -905v-477h-381v475z" />
<glyph unicode="Z" horiz-adv-x="1093" d="M88 0v301l381 664q25 41 53 77q-23 -2 -174 -2h-248v342h895v-315l-401 -659q-37 -56 -39 -58q20 2 231 2h220v-352h-918z" />
<glyph unicode="[" horiz-adv-x="688" d="M102 -436v2044h519v-301h-166v-1440h166v-303h-519z" />
<glyph unicode="\" horiz-adv-x="860" d="M-18 1382h358l549 -1382h-363z" />
<glyph unicode="]" horiz-adv-x="688" d="M68 -133h165v1440h-165v301h518v-2044h-518v303z" />
<glyph unicode="^" horiz-adv-x="1095" d="M68 799l329 583h279l346 -579l-262 -131l-230 452l-219 -452z" />
<glyph unicode="_" horiz-adv-x="1024" d="M0 -213h1024v-303h-1024v303z" />
<glyph unicode="`" horiz-adv-x="778" d="M135 1298l137 261l453 -224l-117 -219z" />
<glyph unicode="a" d="M51 266q0 100 45 176.5t123.5 122t176 68t210.5 22.5v23q0 43 -36.5 61.5t-125.5 18.5q-65 0 -146.5 -19t-143.5 -49l-31 303q190 54 375 54q141 0 235.5 -23t149.5 -72.5t77.5 -116.5t22.5 -165v-389q94 -15 178 -21v-244q-195 -20 -389 -20l-129 2q0 84 8 131h-2 q-36 -71 -116.5 -112.5t-178.5 -41.5q-148 0 -225.5 80.5t-77.5 210.5zM401 322q0 -29 20 -47.5t56 -18.5q56 0 92.5 39.5t36.5 93.5v35q-116 0 -160.5 -25.5t-44.5 -76.5z" />
<glyph unicode="b" horiz-adv-x="1146" d="M-80 1235v244q190 20 405 20q72 0 146 -2v-358q0 -115 -14 -211h2q35 52 103.5 83t160.5 31q182 0 277.5 -127t95.5 -348q0 -123 -37 -229.5t-107.5 -188.5t-182 -129t-251.5 -47q-221 0 -420 58v1183q-94 15 -178 21zM471 281q36 -9 72 -9q159 0 159 256q0 109 -24 156 t-76 47q-55 0 -93 -61.5t-38 -173.5v-215z" />
<glyph unicode="c" horiz-adv-x="837" d="M49 477q0 92 20 174t63 154t107 124.5t156.5 82.5t206.5 30q85 0 178 -22l-37 -324q-80 25 -133 25q-85 0 -127.5 -56.5t-42.5 -162.5q0 -98 46 -149.5t124 -51.5q80 0 142 29l28 -316q-104 -39 -252 -39q-246 0 -362.5 131.5t-116.5 370.5z" />
<glyph unicode="d" horiz-adv-x="1228" d="M51 449q0 122 37 229.5t106 188.5t176 128t238 47q32 0 68 -4v176q-94 15 -178 21v244q190 20 405 21q72 0 146 -3v-1216q94 -15 178 -21v-244q-194 -20 -387 -20q-64 0 -129 2q0 72 6 117h-4q-94 -142 -293 -142q-179 0 -274 128t-95 348zM444 489q0 -108 24.5 -156 t76.5 -48q55 0 93 63t38 180v209q-31 8 -72 8q-160 0 -160 -256z" />
<glyph unicode="e" horiz-adv-x="1073" d="M49 496q0 159 57 281.5t173.5 194.5t277.5 72q153 0 258 -65t153 -174t48 -254q0 -77 -12 -160h-578q5 -57 60 -93t159 -36q156 0 301 64l33 -279q-181 -72 -393 -72q-537 0 -537 521zM424 633h229v13q0 61 -25 93q-28 35 -79 35q-54 0 -88 -39t-37 -102z" />
<glyph unicode="f" horiz-adv-x="739" d="M20 731v287h130v94q0 206 100 306t330 100q88 0 163 -17l-22 -303q-41 16 -94 16q-55 0 -80 -23t-25 -77v-96h174v-287h-174v-731h-372v731h-130z" />
<glyph unicode="g" horiz-adv-x="1136" d="M51 449q0 123 36.5 229.5t107 188t183 128.5t255.5 47q214 0 416 -34v-975q0 -94 -18 -170.5t-61.5 -144.5t-112.5 -113.5t-175 -72t-244 -26.5q-176 0 -329 43l28 336q152 -65 314 -65q121 0 176 41t55 131v14q0 56 8 105h-4q-37 -63 -104.5 -98.5t-151.5 -35.5 q-185 0 -282 122.5t-97 349.5zM444 489q0 -108 24 -154t75 -46q57 0 95 63t38 185v198q-32 8 -72 8q-160 0 -160 -254z" />
<glyph unicode="h" horiz-adv-x="1157" d="M-80 1235v244q190 20 405 20q72 0 146 -2v-375q0 -124 -18 -211h2q46 60 124.5 95.5t180.5 35.5q82 0 141.5 -25t93.5 -70.5t50 -101.5t16 -124v-721h-373v643q0 84 -57 84q-61 0 -110.5 -73t-49.5 -160v-494h-373v1214q-94 15 -178 21z" />
<glyph unicode="i" horiz-adv-x="649" d="M2 758v243q198 21 412 21q69 0 139 -2v-1020h-373v737q-94 15 -178 21zM143 1311q0 89 66 152t158 63t157.5 -63t65.5 -152t-65.5 -152t-157.5 -63t-158 63t-66 152z" />
<glyph unicode="j" horiz-adv-x="649" d="M-57 -469l18 313q58 -22 113 -22q56 0 81 27.5t25 84.5v803q-94 15 -178 21v243q198 21 412 21q69 0 139 -2v-1043q0 -466 -459 -466q-76 0 -151 20zM141 1311q0 89 66 152t158 63t157.5 -63t65.5 -152t-65.5 -152t-157.5 -63t-158 63t-66 152z" />
<glyph unicode="k" horiz-adv-x="1159" d="M-80 1235v244q190 20 405 20q72 0 146 -2v-870l209 391h459l-310 -467l330 -551h-461l-227 471v-471h-373v1214q-94 15 -178 21z" />
<glyph unicode="l" horiz-adv-x="567" d="M-80 1235v244q190 20 405 20q72 0 146 -2v-1497h-373v1214q-94 15 -178 21z" />
<glyph unicode="m" horiz-adv-x="1820" d="M2 758v243q201 21 398 21q63 0 126 -2q0 -73 -10 -139h2q48 76 130 118.5t183 42.5q216 0 277 -161q43 75 124.5 118t182.5 43q153 0 231 -87.5t78 -260.5v-694h-372v631q0 96 -58 96q-56 0 -106.5 -71t-50.5 -164v-492h-369v631q0 96 -57 96t-107.5 -71t-50.5 -164v-492 h-373v737q-94 15 -178 21z" />
<glyph unicode="n" horiz-adv-x="1239" d="M2 758v243q201 21 396 21q63 0 126 -2q0 -81 -10 -137h2q51 73 133 116t193 43q82 0 141.5 -25t93.5 -70.5t50 -101.5t16 -124v-721h-373v643q0 84 -57 84q-61 0 -110.5 -72.5t-49.5 -158.5v-496h-373v737q-94 15 -178 21z" />
<glyph unicode="o" horiz-adv-x="1155" d="M47 479q0 127 43 233.5t118 178t177 111.5t219 40q248 0 376 -132t128 -378q0 -166 -75 -294t-200.5 -195.5t-279.5 -67.5q-506 0 -506 504zM434 520q0 -119 32 -170t107 -51q71 0 109.5 57t38.5 154q0 111 -32 162t-107 51q-61 0 -104.5 -51.5t-43.5 -151.5z" />
<glyph unicode="p" horiz-adv-x="1228" d="M2 758v243q200 21 393 21q62 0 123 -2q0 -72 -4 -117h4q88 139 291 139q179 0 274 -126.5t95 -346.5q0 -131 -33 -236.5t-99 -185t-173 -122.5t-248 -43q-45 0 -72 6v-465h-373v1214q-94 15 -178 21zM553 281q45 -9 72 -9q159 0 159 256q0 109 -24 157t-76 48 q-55 0 -93 -63.5t-38 -180.5v-208z" />
<glyph unicode="q" horiz-adv-x="1144" d="M51 446q0 98 22.5 186.5t70 163.5t115.5 129.5t163.5 85.5t210.5 31q214 0 416 -34v-1205q83 -14 178 -20v-244q-191 -20 -405 -20q-72 0 -146 2v364q0 120 14 221h-4q-37 -63 -104 -98t-152 -35q-186 0 -282.5 121t-96.5 352zM444 489q0 -108 24 -156t75 -48 q56 0 94.5 65t38.5 187v202q-48 6 -72 6q-160 0 -160 -256z" />
<glyph unicode="r" horiz-adv-x="813" d="M2 758v243q201 21 396 21q63 0 126 -2q0 -62 -10 -154h2q95 178 275 178h12l-19 -368q-39 10 -71 10q-64 0 -102 -40q-58 -60 -58 -220v-426h-373v737q-94 15 -178 21z" />
<glyph unicode="s" horiz-adv-x="829" d="M55 690q0 72 29.5 135t86 112.5t148 78t207.5 28.5q60 0 170 -12l-8 -287q-86 21 -168 21q-76 0 -76 -47q0 -18 25 -36t62 -32.5t81 -41.5t81 -59.5t62 -90.5t25 -131q0 -164 -132 -258.5t-353 -94.5q-32 0 -67 2.5t-80 7.5t-64 7l8 295q114 -31 209 -31q39 0 60.5 12 t21.5 33q0 25 -24.5 44.5t-60.5 32t-79 36t-79 53.5t-60.5 87.5t-24.5 135.5z" />
<glyph unicode="t" horiz-adv-x="778" d="M20 731v287h127v287l373 100v-387h193v-287h-191v-342q0 -57 20 -80.5t66 -23.5q51 0 105 14v-293q-127 -31 -236 -31q-188 0 -257.5 71t-69.5 267v418h-130z" />
<glyph unicode="u" horiz-adv-x="1320" d="M2 758v243q212 21 417 21q66 0 132 -2v-645q0 -84 57 -84q61 0 110.5 72.5t49.5 158.5v496h373v-737q94 -15 178 -21v-244q-194 -20 -389 -20q-65 0 -131 2q0 84 8 137h-2q-112 -160 -326 -160q-82 0 -141.5 25.5t-93.5 71t-50 101.5t-16 124v440q-95 16 -176 21z" />
<glyph unicode="v" horiz-adv-x="1095" d="M-10 1018h405l82 -244q55 -167 80 -272h4q31 139 70 262l80 254h395l-369 -1018h-377z" />
<glyph unicode="w" horiz-adv-x="1638" d="M0 1018h403l41 -158q63 -237 91 -364h4q28 176 77 344l50 178h333l48 -158q62 -212 92 -364h4q35 204 71 344l46 178h378l-309 -1018h-393l-68 238q-31 104 -61 262h-2q-20 -107 -64 -256l-69 -244h-365z" />
<glyph unicode="x" horiz-adv-x="1110" d="M-6 0l317 518l-295 500h439l118 -268l117 268h408l-271 -502l289 -516h-461l-110 272l-111 -272h-440z" />
<glyph unicode="y" horiz-adv-x="1093" d="M0 1018h410l59 -187q43 -133 82 -319h4q47 205 92 336l58 170h399l-412 -1098q-60 -162 -128.5 -251t-152 -123.5t-210.5 -34.5q-83 0 -158 20l18 315q77 -26 152 -26q94 0 125 104l22 76z" />
<glyph unicode="z" horiz-adv-x="931" d="M86 0v266l295 420q-28 -4 -143 -4h-140v336h742v-268l-283 -410q25 2 164 2h125v-342h-760z" />
<glyph unicode="{" horiz-adv-x="802" d="M49 494v274q44 2 75 11t58.5 31.5t41.5 67t14 111.5v86q0 290 105 411.5t343 121.5h53v-301q-65 0 -95 -15t-44 -63.5t-14 -153.5v-86q0 -96 -14.5 -165t-42 -108t-59 -58t-71.5 -25v-4q187 -26 187 -369v-156q0 -105 14 -154.5t44 -66t95 -16.5v-303h-53 q-237 0 -342.5 124t-105.5 414v158q0 128 -50 179.5t-139 54.5z" />
<glyph unicode="|" horiz-adv-x="557" d="M123 -512v2048h297v-2048h-297z" />
<glyph unicode="}" horiz-adv-x="802" d="M63 -133q49 0 76 7.5t46 33.5t25.5 71.5t6.5 124.5v156q0 343 186 369v4q-40 6 -71.5 25t-58.5 58t-41.5 108t-14.5 165v86q0 79 -6.5 124t-26 69.5t-46 31.5t-75.5 7v301h54q238 0 343 -121.5t105 -411.5v-86q0 -67 14 -111.5t41.5 -67t58.5 -31.5t75 -11v-274 q-89 -3 -139 -54.5t-50 -179.5v-158q0 -290 -105.5 -414t-342.5 -124h-54v303z" />
<glyph unicode="~" horiz-adv-x="1153" d="M47 647q138 131 334 131q74 0 146 -23.5t132.5 -47t106.5 -23.5q115 0 223 94l111 -274q-115 -152 -334 -152q-81 0 -217.5 46t-198.5 46q-58 0 -109 -21.5t-83 -55.5z" />
<glyph unicode="&#xa1;" horiz-adv-x="632" d="M88 840q0 86 61 145t152 59t152 -59t61 -145q0 -87 -61.5 -146t-151.5 -59t-151.5 59t-61.5 146zM96 -479l35 1052h328l41 -1052h-404z" />
<glyph unicode="&#xa2;" horiz-adv-x="923" d="M72 537q0 192 91.5 331t254.5 183v192h274v-172q77 -8 135 -24l-34 -310q-65 33 -150 33q-84 0 -134 -55t-50 -156q0 -93 45 -140.5t131 -47.5q85 0 166 35l26 -322q-67 -21 -135 -27v-196h-274v198q-116 19 -195.5 87.5t-115 167.5t-35.5 223z" />
<glyph unicode="&#xa3;" horiz-adv-x="983" d="M96 0v291q42 13 68.5 26t51.5 34t36.5 52.5t11.5 75.5q0 29 -10 113h-145v287h116q-18 135 -18 163q0 206 107 307t323 101q100 0 194 -16l-22 -306q-62 15 -113 15q-56 0 -83 -26t-27 -89q0 -25 14 -149h207v-287h-178q4 -36 4 -64q0 -125 -80 -209q108 5 129 5h205 v-324h-791z" />
<glyph unicode="&#xa4;" horiz-adv-x="1054" d="M-4 115l127 161q-53 89 -53 232q0 141 63 242l-135 178l293 202l137 -186q65 10 119 10q30 0 84 -4l129 185l293 -211l-123 -160q45 -92 45 -225q0 -131 -66 -240l144 -184l-295 -209l-146 196q-58 -10 -112 -10q-24 0 -74 4l-133 -186zM389 522q0 -75 33.5 -119.5 t95.5 -44.5q58 0 97.5 39t39.5 133q0 83 -32 120.5t-99 37.5q-54 0 -94.5 -42t-40.5 -124z" />
<glyph unicode="&#xa5;" horiz-adv-x="1259" d="M0 1382h412l129 -262q51 -105 86 -211h4q33 105 106 242l121 231h402l-355 -694h199v-227h-289v-84h289v-232h-289v-145h-377v145h-288v232h288v84h-288v227h200z" />
<glyph unicode="&#xa6;" horiz-adv-x="557" d="M123 262h297v-774h-297v774zM123 782v754h297v-754h-297z" />
<glyph unicode="&#xa7;" horiz-adv-x="1093" d="M84 637q0 96 42 178t110 131q-38 44 -55 93.5t-17 119.5q0 57 17.5 109.5t59 102.5t102.5 86.5t154.5 58.5t209.5 22q100 0 163 -16l-16 -312q-68 21 -149 21q-74 0 -106 -16t-32 -52q0 -26 24.5 -53.5t63.5 -55.5t86.5 -60.5t94.5 -75.5t86 -93.5t63.5 -121.5t24.5 -152 q0 -93 -44 -177t-110 -132q74 -84 74 -217q0 -54 -17.5 -104.5t-60 -100.5t-106 -87t-163 -60t-223.5 -23q-90 0 -182 18l21 316q77 -23 161 -23t124 22.5t40 55.5q0 29 -24.5 57t-63 54.5t-85.5 56.5t-94 70.5t-85.5 88.5t-63 118t-24.5 153zM416 684q0 -58 40.5 -105 t190.5 -159q33 30 33 80q0 30 -8 54t-31.5 49.5t-44 43t-67.5 55.5t-80 66q-33 -33 -33 -84z" />
<glyph unicode="&#xa8;" horiz-adv-x="1118" d="M131 1311q0 77 54.5 131.5t131.5 54.5t132 -55t55 -131q0 -77 -55 -132t-132 -55q-76 0 -131 55t-55 132zM575 1311q0 76 55 131t132 55q76 0 131 -54.5t55 -131.5t-55 -132t-131 -55t-131.5 55t-55.5 132z" />
<glyph unicode="&#xa9;" horiz-adv-x="1576" d="M70 680q0 146 57 279.5t153 229.5t229 153t279 57t279.5 -57t229.5 -153t153 -229.5t57 -279.5t-57 -279.5t-153 -229.5t-229.5 -153t-279.5 -57t-279 57t-229 153t-153 229.5t-57 279.5zM342 680q0 -185 131 -316t315 -131t315.5 131.5t131.5 315.5t-131 315t-316 131 q-184 0 -315 -131t-131 -315zM444 676q0 162 94.5 266.5t268.5 104.5q106 0 178 -37l-45 -236q-14 15 -42 25t-60 10q-97 0 -97 -131q0 -56 23 -82.5t61 -26.5q66 0 117 29l55 -231q-95 -50 -217 -50q-145 0 -240.5 96t-95.5 263z" />
<glyph unicode="&#xaa;" horiz-adv-x="931" d="M51 817q0 79 38 137.5t103 90t138 46t155 13.5v22q0 26 -20 41t-80 15q-109 0 -250 -56l-29 234q162 49 326 49q183 0 266.5 -71.5t83.5 -182.5v-295q82 -11 146 -18v-213q-221 -26 -420 -17q0 59 6 88h-2q-26 -52 -83 -82t-124 -30q-121 0 -187.5 64t-66.5 165zM334 856 q0 -21 15 -35t40 -14q42 0 69 29t27 69v23q-78 0 -114.5 -14.5t-36.5 -57.5z" />
<glyph unicode="&#xab;" d="M49 514l211 444l295 -120l-154 -324l160 -317l-307 -123zM569 514l236 428l285 -125l-168 -303l174 -297l-297 -127z" />
<glyph unicode="&#xac;" horiz-adv-x="1228" d="M61 383v301h1059v-584h-334v283h-725z" />
<glyph unicode="&#xad;" horiz-adv-x="696" d="M82 381v297h532v-297h-532z" />
<glyph unicode="&#xae;" horiz-adv-x="1159" d="M59 1092q0 141 70 257.5t189.5 183t261.5 66.5t261 -66.5t189 -183t70 -257.5t-70 -258t-189 -183.5t-261 -66.5t-261.5 66.5t-189.5 183.5t-70 258zM270 1092q0 -128 91 -219t219 -91q127 0 218 91t91 219t-90.5 218.5t-218.5 90.5t-219 -91t-91 -218zM389 872v441h229 q84 0 125 -35.5t41 -97.5q0 -84 -63 -121q12 -12 22 -45l43 -142h-184l-33 144h-22v-144h-158zM547 1124h14q20 0 32.5 9.5t12.5 27.5q0 35 -43 35h-16v-72z" />
<glyph unicode="&#xaf;" horiz-adv-x="583" d="M55 1180v266h432v-266h-432z" />
<glyph unicode="&#xb0;" horiz-adv-x="829" d="M53 1208q0 75 31.5 137.5t83.5 102.5t115.5 62t128.5 22q91 0 159.5 -25t108.5 -70t59 -100.5t19 -122.5q0 -106 -53.5 -182.5t-134.5 -111.5t-177 -35q-159 0 -249.5 85.5t-90.5 237.5zM319 1210q0 -45 24.5 -70.5t64.5 -25.5t62 29t22 74q0 36 -23 63t-57 27 q-41 0 -67 -27t-26 -70z" />
<glyph unicode="&#xb1;" horiz-adv-x="1249" d="M102 522v307h344v338h357v-338h344v-307h-344v-342h-357v342h-344zM115 98h1020v-311h-1020v311z" />
<glyph unicode="&#xb2;" horiz-adv-x="737" d="M47 553v274l84 64q141 105 141 162q0 24 -11.5 32.5t-39.5 8.5q-69 0 -131 -29l-37 291q127 45 273 45q329 0 329 -250q0 -74 -34 -140t-119 -139l-29 -24q63 4 193 4v-299h-619z" />
<glyph unicode="&#xb3;" horiz-adv-x="696" d="M33 553l26 231q55 -18 138 -18q41 0 65.5 13t24.5 34q0 7 -4 15t-17.5 17t-35.5 13.5t-62.5 3.5t-93.5 -10v207q61 0 104.5 7.5t64 20t29.5 24t9 24.5q0 34 -60 34q-83 0 -155 -34l-29 223q120 43 282 43q168 0 242 -61.5t74 -159.5q0 -114 -115 -185q55 -19 91 -69 t36 -111q0 -130 -101 -206.5t-306 -76.5q-96 0 -207 21z" />
<glyph unicode="&#xb4;" horiz-adv-x="819" d="M160 1333l452 223l133 -256l-473 -182z" />
<glyph unicode="&#xb6;" horiz-adv-x="1273" d="M78 901q0 151 69 261t188 165t275 55v-960q-138 0 -242.5 38.5t-166.5 105.5t-92.5 151.5t-30.5 183.5zM643 106h133v1276h422v-303h-117v-1276h-438v303z" />
<glyph unicode="&#xb7;" horiz-adv-x="655" d="M102 584q0 92 67 158.5t159 66.5t158.5 -66.5t66.5 -158.5t-66.5 -159t-158.5 -67t-159 67t-67 159z" />
<glyph unicode="&#xb8;" horiz-adv-x="819" d="M168 -393q90 52 111 124.5t-33 164.5h332q36 -65 44 -123.5t-12.5 -115.5t-87 -105.5t-176.5 -81.5z" />
<glyph unicode="&#xb9;" horiz-adv-x="655" d="M12 1296l238 86h311v-829h-358v514l-140 -63z" />
<glyph unicode="&#xba;" horiz-adv-x="890" d="M51 989q0 196 119 309t293 113q186 0 281.5 -101t95.5 -302q0 -188 -118.5 -303t-297.5 -115q-78 0 -143 21.5t-117.5 67t-82.5 124.5t-30 186zM336 999q0 -74 26 -116.5t78 -42.5q49 0 81 36t32 123q0 84 -25.5 122t-83.5 38q-45 0 -76.5 -38.5t-31.5 -121.5z" />
<glyph unicode="&#xbb;" d="M72 815l297 127l229 -424l-236 -428l-284 125l168 303zM606 836l307 122l205 -440l-211 -444l-295 121l154 323z" />
<glyph unicode="&#xbc;" horiz-adv-x="1957" d="M12 1296l238 86h311v-829h-358v514l-140 -63zM254 -217l836 1730h383l-834 -1730h-385zM1079 102v232l240 495h496v-458h92v-269h-92v-102h-334v102h-402zM1366 367h111v235z" />
<glyph unicode="&#xbd;" horiz-adv-x="1875" d="M12 1296l238 86h311v-829h-358v514l-140 -63zM254 -217l836 1730h383l-834 -1730h-385zM1194 0v274l84 64q141 105 141 162q0 24 -11.5 32.5t-39.5 8.5q-69 0 -131 -29l-37 291q127 45 273 45q329 0 329 -250q0 -74 -34 -140t-119 -139l-29 -24q63 4 192 4v-299h-618z " />
<glyph unicode="&#xbe;" horiz-adv-x="1988" d="M33 553l26 231q55 -18 138 -18q41 0 65.5 13t24.5 34q0 7 -4 15t-17.5 17t-35.5 13.5t-62.5 3.5t-93.5 -10v207q61 0 104.5 7.5t64 20t29.5 24t9 24.5q0 34 -60 34q-83 0 -155 -34l-29 223q120 43 282 43q168 0 242 -61.5t74 -159.5q0 -114 -115 -185q55 -19 91 -69 t36 -111q0 -130 -101 -206.5t-306 -76.5q-96 0 -207 21zM279 -219l835 1730h383l-833 -1730h-385zM1112 102v232l240 495h495v-458h92v-269h-92v-102h-334v102h-401zM1399 367h110v235z" />
<glyph unicode="&#xbf;" horiz-adv-x="909" d="M57 -29q0 55 13 103.5t34.5 83.5t49.5 67.5t57 56t57.5 50.5t51.5 49.5t38 53t17 62.5t-10 76h364q33 -86 26.5 -156t-36 -116.5t-73 -87t-83.5 -69.5t-69 -64.5t-29 -69.5q0 -78 100 -120t287 -42l-45 -337q-160 3 -289 30.5t-213.5 71.5t-141.5 103t-81.5 122.5 t-24.5 132.5zM328 840q0 86 61 145t152 59t152 -59t61 -145q0 -87 -61.5 -146t-151.5 -59t-151.5 59t-61.5 146z" />
<glyph unicode="&#xc0;" horiz-adv-x="1312" d="M-23 0l451 1382h436l473 -1382h-415l-72 225h-426l-70 -225h-377zM238 1626l137 260l452 -223l-116 -219zM516 524h238l-56 174q-50 160 -63 240h-4q-14 -95 -68 -262z" />
<glyph unicode="&#xc1;" horiz-adv-x="1312" d="M-23 0l451 1382h436l473 -1382h-415l-72 225h-426l-70 -225h-377zM401 1661l453 223l133 -256l-473 -182zM516 524h238l-56 174q-50 160 -63 240h-4q-14 -95 -68 -262z" />
<glyph unicode="&#xc2;" horiz-adv-x="1312" d="M-23 0l451 1382h436l473 -1382h-415l-72 225h-426l-70 -225h-377zM299 1679l346 166l350 -164l-96 -221l-254 117l-254 -117zM516 524h238l-56 174q-50 160 -63 240h-4q-14 -95 -68 -262z" />
<glyph unicode="&#xc3;" horiz-adv-x="1312" d="M-23 0l451 1382h436l473 -1382h-415l-72 225h-426l-70 -225h-377zM254 1737q115 96 229 96q54 0 100 -16.5t74.5 -35.5t69.5 -35.5t86 -16.5q39 0 82 19t66 42l63 -246q-39 -34 -107.5 -63t-123.5 -29q-48 0 -87.5 10.5t-66 26t-52 31t-58 26t-70.5 10.5 q-34 0 -74.5 -19.5t-67.5 -45.5zM516 524h238l-56 174q-50 160 -63 240h-4q-14 -95 -68 -262z" />
<glyph unicode="&#xc4;" horiz-adv-x="1312" d="M-23 0l451 1382h436l473 -1382h-415l-72 225h-426l-70 -225h-377zM236 1638q0 77 55 132t131 55t131 -55t55 -132q0 -76 -55 -131t-131 -55t-131 55t-55 131zM516 524h238l-56 174q-50 160 -63 240h-4q-14 -95 -68 -262zM680 1638q0 77 55 132t131 55t131.5 -55.5 t55.5 -131.5t-55 -131t-132 -55q-76 0 -131 55t-55 131z" />
<glyph unicode="&#xc5;" horiz-adv-x="1312" d="M-23 0l451 1382h436l473 -1382h-415l-72 225h-426l-70 -225h-377zM346 1591q0 123 87.5 204t213.5 81t213.5 -81t87.5 -204t-87.5 -203.5t-213.5 -80.5t-213.5 80.5t-87.5 203.5zM516 524h238l-56 174q-50 160 -63 240h-4q-14 -95 -68 -262zM549 1591q0 -40 29 -69 t69 -29t69 29t29 69t-29 69.5t-69 29.5t-69 -29.5t-29 -69.5z" />
<glyph unicode="&#xc6;" horiz-adv-x="1622" d="M-66 0l613 1382h991v-323h-424v-195h410v-311h-410v-223h432v-330h-796v264h-324l-107 -264h-385zM547 559h203v504h-2q-57 -155 -117 -301z" />
<glyph unicode="&#xc7;" horiz-adv-x="1107" d="M55 635q0 350 188.5 554t524.5 204q134 0 266 -33l-43 -344q-114 31 -223 31q-136 0 -214.5 -91.5t-78.5 -257.5q0 -183 74 -275.5t233 -92.5q48 0 108 10.5t101 28.5l45 -340q-146 -47 -325 -47q-113 0 -207 22t-160.5 58.5t-118.5 89t-83.5 109t-51.5 123t-27.5 127 t-7.5 124.5zM408 -393q89 52 110 124.5t-33 164.5h332q36 -65 44.5 -123.5t-12 -115.5t-87 -105.5t-176.5 -81.5z" />
<glyph unicode="&#xc8;" horiz-adv-x="983" d="M98 0v1382h809v-323h-428v-195h406v-311h-406v-223h428v-330h-809zM143 1626l138 260l452 -223l-117 -219z" />
<glyph unicode="&#xc9;" horiz-adv-x="983" d="M98 0v1382h809v-323h-428v-195h406v-311h-406v-223h428v-330h-809zM258 1661l453 223l133 -256l-473 -182z" />
<glyph unicode="&#xca;" horiz-adv-x="983" d="M98 0v1382h809v-323h-428v-195h406v-311h-406v-223h428v-330h-809zM156 1679l346 166l350 -164l-96 -221l-254 117l-254 -117z" />
<glyph unicode="&#xcb;" horiz-adv-x="983" d="M98 0v1382h809v-323h-428v-195h406v-311h-406v-223h428v-330h-809zM98 1638q0 76 55 131.5t132 55.5q76 0 131 -55t55 -132q0 -76 -54.5 -131t-131.5 -55t-132 55t-55 131zM543 1638q0 77 55 132t131 55t131 -55t55 -132q0 -76 -54.5 -131t-131.5 -55t-131.5 55 t-54.5 131z" />
<glyph unicode="&#xcc;" horiz-adv-x="577" d="M-27 1626l138 260l452 -223l-117 -219zM98 0v1382h381v-1382h-381z" />
<glyph unicode="&#xcd;" horiz-adv-x="577" d="M0 1661l453 223l133 -256l-473 -182zM98 0v1382h381v-1382h-381z" />
<glyph unicode="&#xce;" horiz-adv-x="577" d="M-55 1679l346 166l350 -164l-96 -221l-254 117l-254 -117zM98 0v1382h381v-1382h-381z" />
<glyph unicode="&#xcf;" horiz-adv-x="577" d="M-123 1638q0 77 55 132t131 55q77 0 132 -55.5t55 -131.5t-55 -131t-132 -55t-131.5 55t-54.5 131zM98 0v1382h381v-1382h-381zM322 1638q0 77 55 132t131 55t131 -55t55 -132q0 -76 -55 -131t-131 -55t-131 55t-55 131z" />
<glyph unicode="&#xd0;" horiz-adv-x="1343" d="M8 549v287h107v542q236 13 493 13q125 0 226 -21t187.5 -69.5t145 -124.5t91 -190t32.5 -261q0 -350 -200 -542.5t-545 -192.5q-221 0 -430 12v547h-107zM489 326q31 -7 91 -7q135 0 219 95t84 280q0 70 -6 122t-24.5 102t-50.5 81.5t-86 50.5t-128 19q-68 0 -99 -4v-229 h187v-287h-187v-223z" />
<glyph unicode="&#xd1;" horiz-adv-x="1404" d="M98 0v1382h488l200 -411q136 -284 168 -359q-14 132 -14 287v483h367v-1382h-484l-231 473q-86 177 -137 311q10 -102 10 -219v-565h-367zM305 1737q115 96 230 96q54 0 100 -16.5t74 -35.5t69 -35.5t86 -16.5q39 0 82 19t66 42l63 -246q-39 -34 -107.5 -63t-123.5 -29 q-48 0 -87.5 10.5t-66 26t-52 31t-58 26t-70.5 10.5q-34 0 -74 -19.5t-67 -45.5z" />
<glyph unicode="&#xd2;" horiz-adv-x="1435" d="M43 672q0 164 55.5 303t150.5 234t223.5 148.5t272.5 53.5q139 0 253.5 -39t204.5 -120t140 -217.5t50 -319.5q0 -220 -94 -391t-253.5 -262t-355.5 -91q-320 0 -483.5 183t-163.5 518zM393 1626l137 260l453 -223l-117 -219zM449 700q0 -378 260 -378q38 0 74.5 10.5 t74.5 37.5t66 67.5t45.5 107.5t17.5 151q0 367 -270 367q-52 0 -98.5 -21t-85 -62.5t-61.5 -113.5t-23 -166z" />
<glyph unicode="&#xd3;" horiz-adv-x="1435" d="M43 672q0 164 55.5 303t150.5 234t223.5 148.5t272.5 53.5q139 0 253.5 -39t204.5 -120t140 -217.5t50 -319.5q0 -220 -94 -391t-253.5 -262t-355.5 -91q-320 0 -483.5 183t-163.5 518zM449 700q0 -378 260 -378q38 0 74.5 10.5t74.5 37.5t66 67.5t45.5 107.5t17.5 151 q0 367 -270 367q-52 0 -98.5 -21t-85 -62.5t-61.5 -113.5t-23 -166zM522 1661l453 223l133 -256l-473 -182z" />
<glyph unicode="&#xd4;" horiz-adv-x="1435" d="M43 672q0 164 55.5 303t150.5 234t223.5 148.5t272.5 53.5q139 0 253.5 -39t204.5 -120t140 -217.5t50 -319.5q0 -220 -94 -391t-253.5 -262t-355.5 -91q-320 0 -483.5 183t-163.5 518zM393 1679l346 166l351 -164l-97 -221l-254 117l-254 -117zM449 700q0 -378 260 -378 q38 0 74.5 10.5t74.5 37.5t66 67.5t45.5 107.5t17.5 151q0 367 -270 367q-52 0 -98.5 -21t-85 -62.5t-61.5 -113.5t-23 -166z" />
<glyph unicode="&#xd5;" horiz-adv-x="1435" d="M43 672q0 164 55.5 303t150.5 234t223.5 148.5t272.5 53.5q139 0 253.5 -39t204.5 -120t140 -217.5t50 -319.5q0 -220 -94 -391t-253.5 -262t-355.5 -91q-320 0 -483.5 183t-163.5 518zM346 1747q115 96 229 96q54 0 100 -16.5t74.5 -35.5t69.5 -35.5t86 -16.5 q39 0 82 19t66 42l63 -246q-39 -34 -107.5 -63t-123.5 -29q-58 0 -105.5 16.5t-74.5 36t-67.5 36t-86.5 16.5q-34 0 -73.5 -20t-67.5 -46zM449 700q0 -378 260 -378q38 0 74.5 10.5t74.5 37.5t66 67.5t45.5 107.5t17.5 151q0 367 -270 367q-52 0 -98.5 -21t-85 -62.5 t-61.5 -113.5t-23 -166z" />
<glyph unicode="&#xd6;" horiz-adv-x="1435" d="M43 672q0 164 55.5 303t150.5 234t223.5 148.5t272.5 53.5q139 0 253.5 -39t204.5 -120t140 -217.5t50 -319.5q0 -220 -94 -391t-253.5 -262t-355.5 -91q-320 0 -483.5 183t-163.5 518zM342 1638q0 77 55 132t131 55t131.5 -55.5t55.5 -131.5t-55 -131t-132 -55 q-76 0 -131 55t-55 131zM449 700q0 -378 260 -378q38 0 74.5 10.5t74.5 37.5t66 67.5t45.5 107.5t17.5 151q0 367 -270 367q-52 0 -98.5 -21t-85 -62.5t-61.5 -113.5t-23 -166zM786 1638q0 76 55 131.5t132 55.5q76 0 131 -55t55 -132q0 -76 -54.5 -131t-131.5 -55t-132 55 t-55 131z" />
<glyph unicode="&#xd7;" horiz-adv-x="1191" d="M100 221l277 279l-275 276l230 228l274 -275l275 275l202 -203l-274 -275l278 -278l-229 -230l-278 279l-277 -279z" />
<glyph unicode="&#xd8;" horiz-adv-x="1435" d="M45 672q0 224 89.5 393t245.5 257.5t355 88.5q42 0 62 -2l61 186l270 -82l-57 -176q147 -74 229 -231.5t82 -403.5q0 -159 -53.5 -296.5t-145.5 -232.5t-218.5 -148.5t-268.5 -53.5q-53 0 -78 2l-63 -192l-272 82l63 188q-150 81 -225.5 240t-75.5 381zM426 694 q0 -98 10 -158t39 -100l209 629q-41 -3 -82 -21q-79 -33 -127.5 -120t-48.5 -230zM729 305q23 0 47 6q42 10 79.5 34.5t71.5 67.5t54 114t20 163q0 195 -55 271z" />
<glyph unicode="&#xd9;" horiz-adv-x="1359" d="M98 500v882h381v-864q0 -116 44.5 -171.5t158.5 -55.5t158.5 53t44.5 184v854h377v-833q0 -293 -158 -435.5t-445 -142.5q-130 0 -228.5 27.5t-161 74t-101.5 115.5t-54.5 144t-15.5 168zM297 1626l137 260l453 -223l-117 -219z" />
<glyph unicode="&#xda;" horiz-adv-x="1359" d="M98 500v882h381v-864q0 -116 44.5 -171.5t158.5 -55.5t158.5 53t44.5 184v854h377v-833q0 -293 -158 -435.5t-445 -142.5q-130 0 -228.5 27.5t-161 74t-101.5 115.5t-54.5 144t-15.5 168zM465 1661l453 223l133 -256l-473 -182z" />
<glyph unicode="&#xdb;" horiz-adv-x="1359" d="M98 500v882h381v-864q0 -116 44.5 -171.5t158.5 -55.5t158.5 53t44.5 184v854h377v-833q0 -293 -158 -435.5t-445 -142.5q-130 0 -228.5 27.5t-161 74t-101.5 115.5t-54.5 144t-15.5 168zM334 1679l346 166l350 -164l-96 -221l-254 117l-254 -117z" />
<glyph unicode="&#xdc;" horiz-adv-x="1359" d="M98 500v882h381v-864q0 -116 44.5 -171.5t158.5 -55.5t158.5 53t44.5 184v854h377v-833q0 -293 -158 -435.5t-445 -142.5q-130 0 -228.5 27.5t-161 74t-101.5 115.5t-54.5 144t-15.5 168zM254 1638q0 77 55 132t131 55t131.5 -55.5t55.5 -131.5t-55 -131t-132 -55 q-76 0 -131 55t-55 131zM698 1638q0 76 55 131.5t132 55.5q76 0 131 -55t55 -132q0 -76 -54.5 -131t-131.5 -55t-132 55t-55 131z" />
<glyph unicode="&#xdd;" horiz-adv-x="1222" d="M-14 1382h413l129 -299q51 -117 82 -211h4q26 76 101 242l119 268h403l-438 -905v-477h-381v475zM444 1659l453 223l133 -256l-473 -182z" />
<glyph unicode="&#xde;" horiz-adv-x="1110" d="M98 0v1382h381v-184h51q268 0 412.5 -118t144.5 -345q0 -102 -34.5 -192t-100.5 -161t-173 -112t-242 -41q-31 0 -58 2v-231h-381zM479 549q14 -2 29 -2q78 0 132 47t54 129q0 74 -43 120t-135 46q-21 0 -37 -2v-338z" />
<glyph unicode="&#xdf;" horiz-adv-x="1288" d="M96 0v995q0 109 28.5 197t78 147t118.5 99t146.5 57.5t165.5 17.5q139 0 246 -37.5t171 -116t64 -188.5q0 -68 -18.5 -120.5t-45 -84t-53 -57.5t-45 -56.5t-18.5 -66.5q0 -28 23.5 -54t58.5 -46t76.5 -51.5t76.5 -66.5t58.5 -93.5t23.5 -130.5q0 -171 -126 -272 t-320 -101q-154 0 -240 39l17 295q87 -51 186 -51q94 0 94 57q0 28 -23 52.5t-57 43t-74.5 48t-74.5 62.5t-57 90.5t-23 129.5q0 65 17.5 117.5t42 87.5t49 66t42 67t17.5 76q0 36 -24.5 56t-71.5 20q-72 0 -114 -56.5t-42 -160.5v-1010h-373z" />
<glyph unicode="&#xe0;" d="M51 266q0 100 45 176.5t123.5 122t176 68t210.5 22.5v23q0 43 -36.5 61.5t-125.5 18.5q-65 0 -146.5 -19t-143.5 -49l-31 303q190 54 375 54q141 0 235.5 -23t149.5 -72.5t77.5 -116.5t22.5 -165v-389q94 -15 178 -21v-244q-259 -27 -518 -18q0 84 8 131h-2 q-36 -71 -116.5 -112.5t-178.5 -41.5q-148 0 -225.5 80.5t-77.5 210.5zM229 1298l138 261l452 -224l-117 -219zM401 322q0 -29 20 -47.5t56 -18.5q56 0 92.5 39.5t36.5 93.5v35q-116 0 -160.5 -25.5t-44.5 -76.5z" />
<glyph unicode="&#xe1;" d="M51 266q0 100 45 176.5t123.5 122t176 68t210.5 22.5v23q0 43 -36.5 61.5t-125.5 18.5q-65 0 -146.5 -19t-143.5 -49l-31 303q190 54 375 54q141 0 235.5 -23t149.5 -72.5t77.5 -116.5t22.5 -165v-389q94 -15 178 -21v-244q-259 -27 -518 -18q0 84 8 131h-2 q-36 -71 -116.5 -112.5t-178.5 -41.5q-148 0 -225.5 80.5t-77.5 210.5zM311 1333l453 223l133 -256l-473 -182zM401 322q0 -29 20 -47.5t56 -18.5q56 0 92.5 39.5t36.5 93.5v35q-116 0 -160.5 -25.5t-44.5 -76.5z" />
<glyph unicode="&#xe2;" d="M51 266q0 100 45 176.5t123.5 122t176 68t210.5 22.5v23q0 43 -36.5 61.5t-125.5 18.5q-65 0 -146.5 -19t-143.5 -49l-31 303q190 54 375 54q141 0 235.5 -23t149.5 -72.5t77.5 -116.5t22.5 -165v-389q94 -15 178 -21v-244q-259 -27 -518 -18q0 84 8 131h-2 q-36 -71 -116.5 -112.5t-178.5 -41.5q-148 0 -225.5 80.5t-77.5 210.5zM205 1352l346 166l350 -164l-96 -221l-254 116l-254 -116zM401 322q0 -29 20 -47.5t56 -18.5q56 0 92.5 39.5t36.5 93.5v35q-116 0 -160.5 -25.5t-44.5 -76.5z" />
<glyph unicode="&#xe3;" d="M51 266q0 100 45 176.5t123.5 122t176 68t210.5 22.5v23q0 43 -36.5 61.5t-125.5 18.5q-65 0 -146.5 -19t-143.5 -49l-31 303q190 54 375 54q141 0 235.5 -23t149.5 -72.5t77.5 -116.5t22.5 -165v-389q94 -15 178 -21v-244q-259 -27 -518 -18q0 84 8 131h-2 q-36 -71 -116.5 -112.5t-178.5 -41.5q-148 0 -225.5 80.5t-77.5 210.5zM162 1409q115 96 229 96q54 0 100 -16.5t74.5 -35.5t69.5 -35.5t86 -16.5q39 0 81 18.5t66 42.5l64 -245q-39 -34 -108 -63.5t-124 -29.5q-58 0 -105.5 16.5t-74 36t-67 36t-86.5 16.5q-34 0 -74 -20 t-68 -46zM401 322q0 -29 20 -47.5t56 -18.5q56 0 92.5 39.5t36.5 93.5v35q-116 0 -160.5 -25.5t-44.5 -76.5z" />
<glyph unicode="&#xe4;" d="M51 266q0 100 45 176.5t123.5 122t176 68t210.5 22.5v23q0 43 -36.5 61.5t-125.5 18.5q-65 0 -146.5 -19t-143.5 -49l-31 303q190 54 375 54q141 0 235.5 -23t149.5 -72.5t77.5 -116.5t22.5 -165v-389q94 -15 178 -21v-244q-259 -27 -518 -18q0 84 8 131h-2 q-36 -71 -116.5 -112.5t-178.5 -41.5q-148 0 -225.5 80.5t-77.5 210.5zM139 1311q0 76 55 131t132 55q76 0 131 -54.5t55 -131.5t-55 -132t-131 -55t-131.5 55t-55.5 132zM401 322q0 -29 20 -47.5t56 -18.5q56 0 92.5 39.5t36.5 93.5v35q-116 0 -160.5 -25.5t-44.5 -76.5z M584 1311q0 77 55 131.5t131 54.5t131 -54.5t55 -131.5t-55 -132t-131 -55t-131 55t-55 132z" />
<glyph unicode="&#xe5;" d="M51 266q0 100 45 176.5t123.5 122t176 68t210.5 22.5v23q0 43 -36.5 61.5t-125.5 18.5q-65 0 -146.5 -19t-143.5 -49l-31 303q190 54 375 54q141 0 235.5 -23t149.5 -72.5t77.5 -116.5t22.5 -165v-389q94 -15 178 -21v-244q-259 -27 -518 -18q0 84 8 131h-2 q-36 -71 -116.5 -112.5t-178.5 -41.5q-148 0 -225.5 80.5t-77.5 210.5zM236 1380q0 123 87.5 204t213.5 81t213.5 -81t87.5 -204t-87.5 -203.5t-213.5 -80.5t-213.5 80.5t-87.5 203.5zM401 322q0 -29 20 -47.5t56 -18.5q56 0 92.5 39.5t36.5 93.5v35q-116 0 -160.5 -25.5 t-44.5 -76.5zM438 1380q0 -40 29.5 -69t69.5 -29t69 29t29 69t-29 69.5t-69 29.5t-69.5 -29.5t-29.5 -69.5z" />
<glyph unicode="&#xe6;" horiz-adv-x="1619" d="M51 266q0 100 45 176.5t123.5 122t176 68t210.5 22.5v21q0 44 -36.5 63t-125.5 19q-65 0 -146.5 -19t-143.5 -49l-31 303q197 56 373 56q227 0 344 -76h2q44 32 114.5 51.5t147.5 19.5q153 0 258 -65t153 -174t48 -254q0 -71 -13 -160h-577q5 -57 60 -93t159 -36 q156 0 301 64l33 -279q-181 -72 -393 -72q-307 0 -435 172l-2 -4q-58 -77 -139.5 -122.5t-210.5 -45.5q-147 0 -221 80t-74 211zM401 319q0 -28 20 -45.5t56 -17.5q56 0 92.5 39.5t36.5 93.5v35q-116 0 -160.5 -26.5t-44.5 -78.5zM971 633h229q3 71 -25 106t-79 35 q-54 0 -88 -39t-37 -102z" />
<glyph unicode="&#xe7;" horiz-adv-x="837" d="M49 477q0 92 20 174t63 154t107 124.5t156.5 82.5t206.5 30q85 0 178 -22l-37 -324q-80 25 -133 25q-85 0 -127.5 -56.5t-42.5 -162.5q0 -98 46 -149.5t124 -51.5q80 0 142 29l28 -316q-104 -39 -252 -39q-246 0 -362.5 131.5t-116.5 370.5zM231 -393q90 52 111 124.5 t-33 164.5h332q36 -65 44.5 -123.5t-12 -115.5t-87 -105.5t-176.5 -81.5z" />
<glyph unicode="&#xe8;" horiz-adv-x="1073" d="M49 496q0 159 57 281.5t173.5 194.5t277.5 72q153 0 258 -65t153 -174t48 -254q0 -77 -12 -160h-578q5 -57 60 -93t159 -36q156 0 301 64l33 -279q-181 -72 -393 -72q-537 0 -537 521zM231 1298l138 261l452 -224l-116 -219zM424 633h229q3 71 -25 106t-79 35 q-54 0 -88 -39t-37 -102z" />
<glyph unicode="&#xe9;" horiz-adv-x="1073" d="M49 496q0 159 57 281.5t173.5 194.5t277.5 72q153 0 258 -65t153 -174t48 -254q0 -77 -12 -160h-578q5 -57 60 -93t159 -36q156 0 301 64l33 -279q-181 -72 -393 -72q-537 0 -537 521zM330 1333l452 223l133 -256l-473 -182zM424 633h229q3 71 -25 106t-79 35 q-54 0 -88 -39t-37 -102z" />
<glyph unicode="&#xea;" horiz-adv-x="1073" d="M49 496q0 159 57 281.5t173.5 194.5t277.5 72q153 0 258 -65t153 -174t48 -254q0 -77 -12 -160h-578q5 -57 60 -93t159 -36q156 0 301 64l33 -279q-181 -72 -393 -72q-537 0 -537 521zM201 1352l346 166l350 -164l-96 -221l-254 116l-254 -116zM424 633h229q3 71 -25 106 t-79 35q-54 0 -88 -39t-37 -102z" />
<glyph unicode="&#xeb;" horiz-adv-x="1073" d="M49 496q0 159 57 281.5t173.5 194.5t277.5 72q153 0 258 -65t153 -174t48 -254q0 -77 -12 -160h-578q5 -57 60 -93t159 -36q156 0 301 64l33 -279q-181 -72 -393 -72q-537 0 -537 521zM150 1311q0 77 55 131.5t131 54.5t131 -54.5t55 -131.5t-55 -132t-131 -55t-131 55 t-55 132zM424 633h229q3 71 -25 106t-79 35q-54 0 -88 -39t-37 -102zM594 1311q0 77 55 131.5t131 54.5q77 0 132 -55t55 -131q0 -77 -55.5 -132t-131.5 -55t-131 55t-55 132z" />
<glyph unicode="&#xec;" horiz-adv-x="649" d="M-18 1298l137 261l452 -224l-116 -219zM2 758v243q262 28 551 19v-1020h-373v737q-94 15 -178 21z" />
<glyph unicode="&#xed;" horiz-adv-x="649" d="M2 758v243q262 28 551 19v-1020h-373v737q-94 15 -178 21zM47 1333l453 223l133 -256l-473 -182z" />
<glyph unicode="&#xee;" horiz-adv-x="649" d="M-4 1352l346 166l350 -164l-96 -221l-254 116l-254 -116zM2 758v243q262 28 551 19v-1020h-373v737q-94 15 -178 21z" />
<glyph unicode="&#xef;" horiz-adv-x="649" d="M-86 1311q0 77 55 131.5t131 54.5q77 0 132 -55t55 -131q0 -77 -55.5 -132t-131.5 -55t-131 55t-55 132zM2 758v243q262 28 551 19v-1020h-373v737q-94 15 -178 21zM358 1311q0 76 55 131t132 55t131.5 -54.5t54.5 -131.5t-55 -132t-131 -55q-77 0 -132 55t-55 132z" />
<glyph unicode="&#xf0;" horiz-adv-x="1161" d="M57 467q0 216 134 348.5t362 132.5q108 0 156 -26q-14 96 -76 172l-98 -99l-244 142l88 88q-16 2 -45 2q-73 0 -160 -17v293q97 10 182 10q145 0 267 -43l98 99l244 -142l-107 -106q227 -230 227 -692q0 -142 -34 -256.5t-88.5 -187t-127 -121t-146.5 -68.5t-150 -19 q-248 1 -365 130.5t-117 359.5zM428 469q0 -81 33 -120.5t104 -39.5q66 0 108 56t42 153q0 69 -28 101t-107 32q-75 0 -113.5 -47t-38.5 -135z" />
<glyph unicode="&#xf1;" horiz-adv-x="1239" d="M2 758v243q265 28 522 19q0 -81 -10 -137h2q51 73 133 116t193 43q82 0 141.5 -25t93.5 -70.5t50 -101.5t16 -124v-721h-373v643q0 84 -57 84q-61 0 -110.5 -72.5t-49.5 -158.5v-496h-373v737q-94 15 -178 21zM240 1409q115 96 229 96q54 0 100 -16.5t74.5 -35.5 t69.5 -35.5t86 -16.5q39 0 81 18.5t66 42.5l64 -245q-39 -34 -108 -63.5t-124 -29.5q-58 0 -105.5 16.5t-74.5 36t-67.5 36t-86.5 16.5q-34 0 -73.5 -20t-67.5 -46z" />
<glyph unicode="&#xf2;" horiz-adv-x="1155" d="M47 479q0 127 43 233.5t118 178t177 111.5t219 40q248 0 376 -132t128 -378q0 -166 -75 -294t-200.5 -195.5t-279.5 -67.5q-506 0 -506 504zM256 1298l137 261l453 -224l-117 -219zM434 520q0 -119 32 -170t107 -51q71 0 109.5 57t38.5 154q0 111 -32 162t-107 51 q-61 0 -104.5 -51.5t-43.5 -151.5z" />
<glyph unicode="&#xf3;" horiz-adv-x="1155" d="M47 479q0 127 43 233.5t118 178t177 111.5t219 40q248 0 376 -132t128 -378q0 -166 -75 -294t-200.5 -195.5t-279.5 -67.5q-506 0 -506 504zM354 1333l453 223l133 -256l-473 -182zM434 520q0 -119 32 -170t107 -51q71 0 109.5 57t38.5 154q0 111 -32 162t-107 51 q-61 0 -104.5 -51.5t-43.5 -151.5z" />
<glyph unicode="&#xf4;" horiz-adv-x="1155" d="M47 479q0 127 43 233.5t118 178t177 111.5t219 40q248 0 376 -132t128 -378q0 -166 -75 -294t-200.5 -195.5t-279.5 -67.5q-506 0 -506 504zM248 1352l346 166l350 -164l-96 -221l-254 116l-254 -116zM434 520q0 -119 32 -170t107 -51q71 0 109.5 57t38.5 154 q0 111 -32 162t-107 51q-61 0 -104.5 -51.5t-43.5 -151.5z" />
<glyph unicode="&#xf5;" horiz-adv-x="1155" d="M47 479q0 127 43 233.5t118 178t177 111.5t219 40q248 0 376 -132t128 -378q0 -166 -75 -294t-200.5 -195.5t-279.5 -67.5q-506 0 -506 504zM215 1409q115 96 229 96q54 0 100 -16.5t74.5 -35.5t69.5 -35.5t86 -16.5q39 0 82 19t66 42l63 -245q-39 -34 -107.5 -63.5 t-123.5 -29.5q-58 0 -105.5 16.5t-74.5 36t-67.5 36t-86.5 16.5q-34 0 -73.5 -20t-67.5 -46zM434 520q0 -119 32 -170t107 -51q71 0 109.5 57t38.5 154q0 111 -32 162t-107 51q-61 0 -104.5 -51.5t-43.5 -151.5z" />
<glyph unicode="&#xf6;" horiz-adv-x="1155" d="M47 479q0 127 43 233.5t118 178t177 111.5t219 40q248 0 376 -132t128 -378q0 -166 -75 -294t-200.5 -195.5t-279.5 -67.5q-506 0 -506 504zM190 1311q0 76 55 131t132 55t131.5 -54.5t54.5 -131.5t-55 -132t-131 -55q-77 0 -132 55t-55 132zM434 520q0 -119 32 -170 t107 -51q71 0 109.5 57t38.5 154q0 111 -32 162t-107 51q-61 0 -104.5 -51.5t-43.5 -151.5zM635 1311q0 77 54.5 131.5t131.5 54.5t132 -55t55 -131q0 -77 -55 -132t-132 -55q-76 0 -131 55t-55 132z" />
<glyph unicode="&#xf7;" horiz-adv-x="1290" d="M102 373v311h1086v-311h-1086zM432 119q0 88 62.5 150.5t150.5 62.5t150.5 -62.5t62.5 -150.5t-62.5 -150.5t-150.5 -62.5t-150.5 62.5t-62.5 150.5zM432 938q0 88 62.5 150.5t150.5 62.5t150.5 -62.5t62.5 -150.5t-62.5 -150.5t-150.5 -62.5t-150.5 62.5t-62.5 150.5z " />
<glyph unicode="&#xf8;" horiz-adv-x="1138" d="M47 489q0 131 42 237.5t116 176t173 107t214 37.5q18 0 80 -5l71 189l199 -60l-72 -182q222 -117 222 -461q0 -167 -72 -295t-194.5 -195t-276.5 -67q-30 0 -76 4l-78 -200l-198 59l75 195q-225 120 -225 460zM389 508q0 -79 23 -129l143 364q-20 0 -41 -6 q-56 -18 -90.5 -76.5t-34.5 -152.5zM588 274q6 1 18.5 3.5t18.5 3.5q127 39 127 237q0 78 -17 133z" />
<glyph unicode="&#xf9;" horiz-adv-x="1320" d="M2 758v243q280 28 549 19v-645q0 -84 57 -84q61 0 110.5 72.5t49.5 158.5v496h373v-737q94 -15 178 -21v-244q-258 -27 -520 -18q0 84 8 137h-2q-112 -160 -326 -160q-82 0 -141.5 25.5t-93.5 71t-50 101.5t-16 124v440q-95 16 -176 21zM270 1298l138 261l452 -224 l-117 -219z" />
<glyph unicode="&#xfa;" horiz-adv-x="1320" d="M2 758v243q280 28 549 19v-645q0 -84 57 -84q61 0 110.5 72.5t49.5 158.5v496h373v-737q94 -15 178 -21v-244q-258 -27 -520 -18q0 84 8 137h-2q-112 -160 -326 -160q-82 0 -141.5 25.5t-93.5 71t-50 101.5t-16 124v440q-95 16 -176 21zM442 1333l453 223l133 -256 l-473 -182z" />
<glyph unicode="&#xfb;" horiz-adv-x="1320" d="M2 758v243q280 28 549 19v-645q0 -84 57 -84q61 0 110.5 72.5t49.5 158.5v496h373v-737q94 -15 178 -21v-244q-258 -27 -520 -18q0 84 8 137h-2q-112 -160 -326 -160q-82 0 -141.5 25.5t-93.5 71t-50 101.5t-16 124v440q-95 16 -176 21zM305 1352l346 166l350 -164 l-96 -221l-254 116l-254 -116z" />
<glyph unicode="&#xfc;" horiz-adv-x="1320" d="M2 758v243q280 28 549 19v-645q0 -84 57 -84q61 0 110.5 72.5t49.5 158.5v496h373v-737q94 -15 178 -21v-244q-258 -27 -520 -18q0 84 8 137h-2q-112 -160 -326 -160q-82 0 -141.5 25.5t-93.5 71t-50 101.5t-16 124v440q-95 16 -176 21zM240 1311q0 77 55 131.5t131 54.5 t131 -54.5t55 -131.5t-55 -132t-131 -55t-131 55t-55 132zM684 1311q0 77 55 131.5t131 54.5q77 0 132 -55t55 -131q0 -77 -55.5 -132t-131.5 -55t-131 55t-55 132z" />
<glyph unicode="&#xfd;" horiz-adv-x="1093" d="M0 1018h410l59 -187q43 -133 82 -319h4q47 205 92 336l58 170h399l-420 -1118q-90 -241 -192.5 -329.5t-284.5 -88.5q-78 0 -154 29l19 311q70 -31 145 -31q78 0 115 115l28 94zM371 1333l452 223l133 -256l-473 -182z" />
<glyph unicode="&#xfe;" d="M-59 1235v244q254 27 551 18v-375q0 -105 -9 -184h4q86 104 261 104q179 0 273.5 -126.5t94.5 -346.5q0 -131 -33 -236.5t-99 -185t-173 -122.5t-248 -43q-44 0 -71 6v-494h-373v1720q-94 15 -178 21zM492 281q45 -9 71 -9q160 0 160 256q0 109 -24 157t-76 48 q-55 0 -93 -63.5t-38 -180.5v-208z" />
<glyph unicode="&#xff;" horiz-adv-x="1093" d="M0 1018h410l59 -187q43 -133 82 -319h4q47 205 92 336l58 170h399l-412 -1098q-60 -162 -128.5 -251t-152 -123.5t-210.5 -34.5q-83 0 -158 20l18 315q77 -26 152 -26q94 0 125 104l22 76zM152 1311q0 77 55 131.5t131 54.5t131 -54.5t55 -131.5t-55 -132t-131 -55 t-131 55t-55 132zM596 1311q0 77 55 131.5t131 54.5q77 0 132 -55t55 -131q0 -77 -55.5 -132t-131.5 -55t-131 55t-55 132z" />
<glyph unicode="&#x152;" horiz-adv-x="1642" d="M45 672q0 162 52 299.5t142 230.5t211 145t257 52q71 0 155 -8.5t127 -8.5h578v-323h-428v-195h405v-311h-405v-223h428v-330h-559q-62 0 -166.5 -11.5t-169.5 -11.5q-305 0 -466 185t-161 510zM440 698q0 -187 68.5 -281.5t193.5 -94.5q42 0 74 8v719q-34 6 -71 6 q-117 0 -191 -97t-74 -260z" />
<glyph unicode="&#x153;" horiz-adv-x="1722" d="M47 494q0 170 73.5 296t195 189t272.5 63q199 0 317 -90q122 92 301 92q153 0 258 -65t153 -174t48 -254q0 -77 -12 -160h-578q5 -57 60 -93t159 -36q156 0 301 64l33 -279q-181 -72 -393 -72q-240 0 -371 107q-56 -48 -143 -77.5t-184 -29.5q-90 0 -163.5 16.5 t-135.5 55t-103.5 97.5t-64.5 147.5t-23 202.5zM410 508q0 -119 32.5 -169t114.5 -50q75 0 115.5 59t40.5 162q0 118 -33.5 169.5t-114.5 51.5q-66 0 -110.5 -53.5t-44.5 -169.5zM1073 633h230q3 71 -25 106t-80 35q-54 0 -88 -39t-37 -102z" />
<glyph unicode="&#x178;" horiz-adv-x="1222" d="M-14 1382h413l129 -299q51 -117 82 -211h4q26 76 101 242l119 268h403l-438 -905v-477h-381v475zM205 1638q0 77 55 132t131 55q77 0 132 -55.5t55 -131.5t-55 -131t-132 -55t-131.5 55t-54.5 131zM649 1638q0 76 55.5 131.5t131.5 55.5t131 -55t55 -132q0 -76 -55 -131 t-131 -55q-77 0 -132 55t-55 131z" />
<glyph unicode="&#x2c6;" horiz-adv-x="851" d="M80 1352l346 166l350 -164l-96 -221l-254 116l-254 -116z" />
<glyph unicode="&#x2dc;" horiz-adv-x="870" d="M61 1409q115 96 230 96q54 0 100 -16.5t74.5 -35.5t69.5 -35.5t86 -16.5q39 0 81 18.5t66 42.5l63 -245q-39 -34 -107.5 -63.5t-123.5 -29.5q-58 0 -105.5 16.5t-74.5 36t-67.5 36t-86.5 16.5q-34 0 -73.5 -20t-67.5 -46z" />
<glyph unicode="&#x2000;" horiz-adv-x="943" />
<glyph unicode="&#x2001;" horiz-adv-x="1886" />
<glyph unicode="&#x2002;" horiz-adv-x="943" />
<glyph unicode="&#x2003;" horiz-adv-x="1886" />
<glyph unicode="&#x2004;" horiz-adv-x="628" />
<glyph unicode="&#x2005;" horiz-adv-x="471" />
<glyph unicode="&#x2006;" horiz-adv-x="314" />
<glyph unicode="&#x2007;" horiz-adv-x="314" />
<glyph unicode="&#x2008;" horiz-adv-x="235" />
<glyph unicode="&#x2009;" horiz-adv-x="377" />
<glyph unicode="&#x200a;" horiz-adv-x="104" />
<glyph unicode="&#x2010;" horiz-adv-x="696" d="M82 381v297h532v-297h-532z" />
<glyph unicode="&#x2011;" horiz-adv-x="696" d="M82 381v297h532v-297h-532z" />
<glyph unicode="&#x2012;" horiz-adv-x="696" d="M82 381v297h532v-297h-532z" />
<glyph unicode="&#x2013;" horiz-adv-x="1024" d="M0 428v328h1024v-328h-1024z" />
<glyph unicode="&#x2014;" horiz-adv-x="2048" d="M0 428v328h2048v-328h-2048z" />
<glyph unicode="&#x2018;" horiz-adv-x="614" d="M88 1094q39 215 255 418q29 27 60 53l150 -133q-113 -120 -129 -195.5t51 -149.5q38 -43 45.5 -102.5t-13 -112.5t-74 -90t-126.5 -37q-109 0 -174 90q-73 103 -45 259z" />
<glyph unicode="&#x2019;" horiz-adv-x="614" d="M61 856q113 120 129 195t-51 149q-38 43 -45.5 102.5t13 112.5t74 90t126.5 37q109 0 174 -90q73 -103 45 -259q-39 -215 -256 -418q-28 -26 -59 -52z" />
<glyph unicode="&#x201a;" horiz-adv-x="614" d="M61 -276q113 120 129 195t-51 149q-38 43 -45.5 102.5t13 112.5t74 90t126.5 37q109 0 174 -90q73 -103 45 -259q-39 -215 -255 -418q-29 -27 -60 -53z" />
<glyph unicode="&#x201c;" horiz-adv-x="1146" d="M88 1094q39 215 255 418q29 27 60 53l150 -133q-113 -120 -129 -195.5t51 -149.5q38 -43 45.5 -102.5t-13 -112.5t-74 -90t-126.5 -37q-109 0 -174 90q-73 103 -45 259zM621 1094q39 215 255 418q29 27 60 53l149 -133q-113 -120 -128.5 -196t51.5 -149 q38 -43 45.5 -102.5t-13 -112.5t-74 -90t-126.5 -37q-109 0 -174 90q-73 103 -45 259z" />
<glyph unicode="&#x201d;" horiz-adv-x="1146" d="M61 856q113 120 129 195t-51 149q-38 43 -45.5 102.5t13 112.5t74 90t126.5 37q109 0 174 -90q73 -103 45 -259q-39 -215 -256 -418q-28 -26 -59 -52zM594 856q113 120 129 195t-51 149q-38 43 -45.5 102.5t13 112.5t74 90t126.5 37q109 0 174 -90q73 -103 44 -259 q-39 -215 -256 -418q-28 -26 -59 -52z" />
<glyph unicode="&#x201e;" horiz-adv-x="1146" d="M61 -276q113 120 129 195t-51 149q-38 43 -45.5 102.5t13 112.5t74 90t126.5 37q109 0 174 -90q73 -103 45 -259q-39 -215 -255 -418q-29 -27 -60 -53zM594 -276q113 120 129 195t-51 149q-38 43 -45.5 102.5t13 112.5t74 90t126.5 37q109 0 174 -90q73 -103 44 -259 q-39 -215 -255 -418q-29 -27 -60 -53z" />
<glyph unicode="&#x2022;" horiz-adv-x="872" d="M51 612q0 159 113 272t272 113q158 0 271.5 -113.5t113.5 -271.5t-113.5 -271.5t-271.5 -113.5q-159 0 -272 113t-113 272z" />
<glyph unicode="&#x2026;" horiz-adv-x="1734" d="M82 195q0 92 66.5 158.5t158.5 66.5t158.5 -66.5t66.5 -158.5t-66.5 -159t-158.5 -67t-158.5 67t-66.5 159zM643 195q0 92 66.5 158.5t158.5 66.5t159 -66.5t67 -158.5t-67 -159t-159 -67t-158.5 67t-66.5 159zM1204 195q0 92 67 158.5t159 66.5t158.5 -66.5t66.5 -158.5 t-66.5 -159t-158.5 -67t-159 67t-67 159z" />
<glyph unicode="&#x202f;" horiz-adv-x="377" />
<glyph unicode="&#x2039;" horiz-adv-x="636" d="M45 514l223 438l291 -125l-162 -313l168 -307l-303 -127z" />
<glyph unicode="&#x203a;" horiz-adv-x="636" d="M72 825l303 127l217 -434l-223 -438l-291 125l162 313z" />
<glyph unicode="&#x205f;" horiz-adv-x="471" />
<glyph unicode="&#x20ac;" horiz-adv-x="1126" d="M23 422v209h122v4q0 23 5 110h-127v209h161q62 218 216 337.5t397 119.5q143 0 268 -33l-64 -313q-87 33 -200 33q-162 0 -223 -144h258v-209h-297v-47q0 -47 2 -67h295v-209h-261q29 -74 83.5 -107.5t140.5 -33.5q100 0 209 41l65 -287q-166 -64 -342 -64 q-246 0 -387 110t-182 341h-139z" />
<glyph unicode="&#x2122;" horiz-adv-x="1382" d="M14 1159v223h486v-223h-113v-352h-252v352h-121zM487 807l97 575h288l37 -159l13 -70l10 70l31 159h292l103 -575h-268l-25 170l-6 78l-12 -78l-29 -170h-221l-33 176l-10 72l-4 -72l-21 -176h-242z" />
<glyph unicode="&#xe000;" horiz-adv-x="1013" d="M0 0v1014h1014v-1014h-1014z" />
</font>
</defs>
</svg>
